<?xml version="1.0" encoding="UTF-8"?><svg id="Layer_2" xmlns="http://www.w3.org/2000/svg" viewBox="0 0 252.76 291.56"><defs><style>.cls-1{fill:#fff;}.cls-2{stroke-width:2px;}.cls-2,.cls-3{stroke:#fff;stroke-miterlimit:10;}.cls-2,.cls-4{fill:#e1e5ea;}.cls-5{fill-rule:evenodd;}.cls-5,.cls-6,.cls-3{fill:#455a64;}.cls-7{fill:#f5f5f5;}.cls-8{fill:#ffbf9d;}.cls-9{fill:#e0e0e0;}.cls-10{fill:#ff9a6c;}.cls-11{fill:#b63568;}.cls-3{stroke-width:.25px;}.cls-12{opacity:.3;}.cls-13{opacity:.1;}.cls-14{fill:#ebebeb;}.cls-15{fill:#4275aa;}.cls-16{fill:#263238;}</style></defs><g id="Character"><g><path class="cls-4" d="M32.76,49.45c1.42,.4,2.76,.98,3.99,1.71l3.43-2.11,4.66,4.77-2.19,3.38c.71,1.25,1.25,2.61,1.61,4.04l3.92,.94-.08,6.67-3.94,.84c-.4,1.42-.98,2.76-1.71,3.99l2.11,3.43-4.77,4.66-3.38-2.19c-1.25,.71-2.61,1.25-4.03,1.61l-.94,3.92-6.67-.08-.84-3.94c-1.42-.4-2.76-.98-3.99-1.71l-3.43,2.11-4.66-4.77,2.19-3.38c-.71-1.25-1.25-2.61-1.61-4.03l-3.92-.94,.08-6.67,3.94-.84c.4-1.42,.98-2.76,1.71-3.99l-2.11-3.43,4.77-4.66,3.38,2.19c1.25-.71,2.61-1.25,4.03-1.61l.94-3.92,6.67,.08,.84,3.94h0Zm-4.03,8.67c-3.95-.05-7.19,3.11-7.24,7.06-.05,3.95,3.11,7.19,7.06,7.24,3.95,.05,7.19-3.11,7.24-7.06,.05-3.95-3.11-7.19-7.06-7.24Z"/><rect class="cls-4" x="220.52" y="44.96" width="24.98" height="24.98" rx="10.38" ry="10.38"/><path class="cls-4" d="M249.22,243.55c.02,1.47-.15,2.92-.51,4.32l3,2.69-3.25,5.82-3.87-1.14c-1,1.03-2.14,1.94-3.41,2.7l.22,4.02-6.41,1.82-1.93-3.54c-1.47,.02-2.92-.15-4.32-.51l-2.69,3-5.82-3.25,1.14-3.87c-1.03-1-1.94-2.14-2.7-3.41l-4.02,.21-1.82-6.41,3.54-1.93c-.02-1.47,.15-2.92,.51-4.32l-3-2.69,3.25-5.82,3.87,1.14c1-1.03,2.14-1.94,3.41-2.7l-.22-4.02,6.41-1.82,1.93,3.54c1.47-.02,2.92,.15,4.32,.51l2.69-3,5.82,3.25-1.14,3.87c1.03,1,1.94,2.14,2.7,3.41l4.02-.22,1.82,6.41-3.54,1.93h0Zm-9.46-1.39c-1.08-3.8-5.03-6.01-8.83-4.93-3.8,1.08-6.01,5.03-4.93,8.83,1.08,3.8,5.03,6.01,8.83,4.93,3.8-1.08,6.01-5.03,4.93-8.83Z"/><path class="cls-16" d="M199.8,153.89c.08,0,.14,2.8,.14,6.25s-.06,6.25-.14,6.25-.14-2.8-.14-6.25,.06-6.25,.14-6.25Z"/><path class="cls-16" d="M152.76,87.17c-.08,0-.14-4.66-.14-10.42s.06-3.14,.14-3.14,.14-2.62,.14,3.14-.06,10.42-.14,10.42Z"/><path class="cls-16" d="M136.66,111.87s-.13,.02-.38,.03l-1.1,.03c-.99,.01-2.37,.03-4.05,.05-3.45,.01-8.17,.03-13.38,.04-.65,0-1.3,0-1.93,0-.31,0-.64,0-.96-.04-.32-.05-.64-.13-.93-.27-1.19-.52-1.95-1.62-2.3-2.72-.17-.55-.24-1.12-.24-1.67,0-.54,.01-1.06,.02-1.56,.01-1,.03-1.94,.04-2.8,.03-1.69,.06-3.06,.07-4.05,.01-.45,.03-.82,.03-1.1,.01-.25,.02-.38,.03-.38s.02,.13,.03,.38l.02,1.1c0,.99,.01,2.37,.02,4.05,0,.86,0,1.8,0,2.8,.03,1.01-.12,2.1,.24,3.15,.33,1.04,1.06,2.06,2.16,2.54,.27,.13,.56,.2,.85,.25,.29,.04,.6,.03,.93,.03,.64,0,1.28,0,1.93,0,5.21,.02,9.92,.03,13.38,.04,1.69,.02,3.06,.03,4.05,.05l1.1,.03c.25,0,.38,.02,.38,.03Z"/><g><rect class="cls-1" x="134.88" y="39.66" width="33.84" height="33.84" rx="5.77" ry="5.77"/><path class="cls-16" d="M162.95,73.5s.44,0,1.26-.17c.79-.19,2.01-.65,3.05-1.85,.52-.59,.97-1.37,1.2-2.29,.27-.92,.17-1.98,.18-3.11,0-2.26-.01-4.82-.02-7.66,0-2.84-.01-5.95-.02-9.28,0-.83,0-1.68,0-2.55,0-.87,.05-1.74-.19-2.58-.42-1.69-1.72-3.2-3.44-3.84-.42-.17-.88-.27-1.34-.33-.46-.05-.93-.05-1.41-.04-.96,0-1.93,0-2.91,0-1.96,0-3.97,0-6.01,0-4.08,0-8.31,0-12.64,0-1.06,.01-2.1,.3-2.98,.86-.44,.28-.85,.61-1.19,1-.35,.38-.64,.81-.87,1.27-.24,.46-.38,.95-.49,1.45-.1,.5-.1,1.01-.1,1.53,0,1.04,0,2.07,0,3.09,0,4.08,0,8.02,0,11.78,0,1.88,0,3.71,0,5.48,.02,.89-.06,1.77,.11,2.6,.17,.83,.53,1.6,1.02,2.25,.97,1.32,2.49,2.12,4.01,2.25,1.53,.05,3.03,.02,4.44,.03,5.67,.02,10.26,.04,13.44,.05,1.58,.01,2.81,.02,3.65,.03h.95c.21,.02,.32,.03,.32,.03,0,0-.11,0-.32,.01-.23,0-.54,0-.95,.01-.85,0-2.08,.02-3.65,.03-3.19,.01-7.78,.03-13.44,.05-1.42,0-2.9,.03-4.46-.02-1.57-.12-3.16-.95-4.18-2.32-.51-.68-.89-1.48-1.07-2.35-.18-.87-.1-1.76-.12-2.64,0-1.78,0-3.61,0-5.48,0-3.75,0-7.69,0-11.78,0-1.02,0-2.05,0-3.09,0-.51,0-1.06,.1-1.58,.11-.52,.26-1.05,.51-1.53,.24-.49,.54-.94,.91-1.34,.36-.41,.79-.76,1.25-1.05,.93-.59,2.03-.89,3.14-.91,4.33,0,8.56,0,12.64,0,2.04,0,4.05,0,6.01,0,.98,0,1.95,0,2.91,0,.48,0,.96,0,1.45,.05,.48,.07,.96,.17,1.4,.35,1.8,.68,3.16,2.26,3.59,4.03,.24,.89,.18,1.79,.19,2.64,0,.86,0,1.71,0,2.55,0,3.34-.01,6.44-.02,9.28,0,2.84-.02,5.4-.02,7.66-.02,1.12,.07,2.19-.21,3.14-.25,.95-.71,1.74-1.25,2.33-1.07,1.21-2.31,1.66-3.12,1.83-.41,.08-.73,.12-.95,.11-.21,0-.32,0-.32,0Z"/></g><g><rect class="cls-1" x="176.66" y="43.99" width="33.84" height="33.84" rx="5.77" ry="5.77"/><path class="cls-16" d="M204.74,77.84s.44,0,1.26-.17c.79-.19,2.01-.65,3.05-1.85,.52-.59,.97-1.37,1.2-2.29,.27-.92,.17-1.98,.18-3.11,0-2.26-.01-4.82-.02-7.66,0-2.84-.01-5.95-.02-9.28,0-.83,0-1.68,0-2.55,0-.87,.05-1.74-.19-2.58-.42-1.69-1.72-3.2-3.44-3.84-.42-.17-.88-.27-1.34-.33-.46-.05-.93-.05-1.41-.04-.96,0-1.93,0-2.91,0-1.96,0-3.97,0-6.01,0-4.08,0-8.31,0-12.64,0-1.06,.01-2.1,.3-2.98,.86-.44,.28-.85,.61-1.19,1-.35,.38-.64,.81-.87,1.27-.24,.46-.38,.95-.49,1.45-.1,.5-.1,1.01-.1,1.53,0,1.04,0,2.07,0,3.09,0,4.08,0,8.02,0,11.78,0,1.88,0,3.71,0,5.48,.02,.89-.06,1.77,.11,2.6,.17,.83,.53,1.6,1.02,2.25,.97,1.32,2.49,2.12,4.01,2.25,1.53,.05,3.03,.02,4.44,.03,5.67,.02,10.26,.04,13.44,.05,1.58,.01,2.81,.02,3.65,.03h.95c.21,.02,.32,.03,.32,.03,0,0-.11,0-.32,.01-.23,0-.54,0-.95,.01-.85,0-2.08,.02-3.65,.03-3.19,.01-7.78,.03-13.44,.05-1.42,0-2.9,.03-4.46-.02-1.57-.12-3.16-.95-4.18-2.32-.51-.68-.89-1.48-1.07-2.35-.18-.87-.1-1.76-.12-2.64,0-1.78,0-3.61,0-5.48,0-3.75,0-7.69,0-11.78,0-1.02,0-2.05,0-3.09,0-.51,0-1.06,.1-1.58,.11-.52,.26-1.05,.51-1.53,.24-.49,.54-.94,.91-1.34,.36-.41,.79-.76,1.25-1.05,.93-.59,2.03-.89,3.14-.91,4.33,0,8.56,0,12.64,0,2.04,0,4.05,0,6.01,0,.98,0,1.95,0,2.91,0,.48,0,.96,0,1.45,.05,.48,.07,.96,.17,1.4,.35,1.8,.68,3.16,2.26,3.59,4.03,.24,.89,.18,1.79,.19,2.64,0,.86,0,1.71,0,2.55,0,3.34-.01,6.44-.02,9.28,0,2.84-.02,5.4-.02,7.66-.02,1.12,.07,2.19-.21,3.14-.25,.95-.71,1.74-1.25,2.33-1.07,1.21-2.31,1.66-3.12,1.83-.41,.08-.73,.12-.95,.11-.21,0-.32,0-.32,0Z"/></g><g><rect class="cls-1" x="213.47" y="84.86" width="33.84" height="33.84" rx="5.77" ry="5.77"/><path class="cls-16" d="M241.54,118.7s.44,0,1.26-.17c.79-.19,2.01-.65,3.05-1.85,.52-.59,.97-1.37,1.2-2.29,.27-.92,.17-1.98,.18-3.11,0-2.26-.01-4.82-.02-7.66,0-2.84-.01-5.95-.02-9.28,0-.83,0-1.68,0-2.55,0-.87,.05-1.74-.19-2.58-.42-1.69-1.72-3.2-3.44-3.84-.42-.17-.88-.27-1.34-.33-.46-.05-.93-.05-1.41-.04-.96,0-1.93,0-2.91,0-1.96,0-3.97,0-6.01,0-4.08,0-8.31,0-12.64,0-1.06,.01-2.1,.3-2.98,.86-.44,.28-.85,.61-1.19,1-.35,.38-.64,.81-.87,1.27-.24,.46-.38,.95-.49,1.45-.1,.5-.1,1.01-.1,1.53,0,1.04,0,2.07,0,3.09,0,4.08,0,8.02,0,11.78,0,1.88,0,3.71,0,5.48,.02,.89-.06,1.77,.11,2.6,.17,.83,.53,1.6,1.02,2.25,.97,1.32,2.49,2.12,4.01,2.25,1.53,.05,3.03,.02,4.44,.03,5.67,.02,10.26,.04,13.44,.05,1.58,.01,2.81,.02,3.65,.03h.95c.21,.02,.32,.03,.32,.03,0,0-.11,0-.32,.01-.23,0-.54,0-.95,.01-.85,0-2.08,.02-3.65,.03-3.19,.01-7.78,.03-13.44,.05-1.42,0-2.9,.03-4.46-.02-1.57-.12-3.16-.95-4.18-2.32-.51-.68-.89-1.48-1.07-2.35-.18-.87-.1-1.76-.12-2.64,0-1.78,0-3.61,0-5.48,0-3.75,0-7.69,0-11.78,0-1.02,0-2.05,0-3.09,0-.51,0-1.06,.1-1.58,.11-.52,.26-1.05,.51-1.53,.24-.49,.54-.94,.91-1.34,.36-.41,.79-.76,1.25-1.05,.93-.59,2.03-.89,3.14-.91,4.33,0,8.56,0,12.64,0,2.04,0,4.05,0,6.01,0,.98,0,1.95,0,2.91,0,.48,0,.96,0,1.45,.05,.48,.07,.96,.17,1.4,.35,1.8,.68,3.16,2.26,3.59,4.03,.24,.89,.18,1.79,.19,2.64,0,.86,0,1.71,0,2.55,0,3.34-.01,6.44-.02,9.28,0,2.84-.02,5.4-.02,7.66-.02,1.12,.07,2.19-.21,3.14-.25,.95-.71,1.74-1.25,2.33-1.07,1.21-2.31,1.66-3.12,1.83-.41,.08-.73,.12-.95,.11-.21,0-.32,0-.32,0Z"/></g><g><rect class="cls-1" x="88.68" y="60.91" width="33.84" height="33.84" rx="5.77" ry="5.77"/><path class="cls-16" d="M116.76,94.76s.44,0,1.26-.17c.79-.19,2.01-.65,3.05-1.85,.52-.59,.97-1.37,1.2-2.29,.27-.92,.17-1.98,.18-3.11,0-2.26-.01-4.82-.02-7.66,0-2.84-.01-5.95-.02-9.28,0-.83,0-1.68,0-2.55,0-.87,.05-1.74-.19-2.58-.42-1.69-1.72-3.2-3.44-3.84-.42-.17-.88-.27-1.34-.33-.46-.05-.93-.05-1.41-.04-.96,0-1.93,0-2.91,0-1.96,0-3.97,0-6.01,0-4.08,0-8.31,0-12.64,0-1.06,.01-2.1,.3-2.98,.86-.44,.28-.85,.61-1.19,1-.35,.38-.64,.81-.87,1.27-.24,.46-.38,.95-.49,1.45-.1,.5-.1,1.01-.1,1.53,0,1.04,0,2.07,0,3.09,0,4.08,0,8.02,0,11.78,0,1.88,0,3.71,0,5.48,.02,.89-.06,1.77,.11,2.6,.17,.83,.53,1.6,1.02,2.25,.97,1.32,2.49,2.12,4.01,2.25,1.53,.05,3.03,.02,4.44,.03,5.67,.02,10.26,.04,13.44,.05,1.58,.01,2.81,.02,3.65,.03h.95c.21,.02,.32,.03,.32,.03,0,0-.11,0-.32,.01h-.95c-.85,.02-2.08,.03-3.65,.04-3.19,.01-7.78,.03-13.44,.05-1.42,0-2.9,.03-4.46-.02-1.57-.12-3.16-.95-4.18-2.32-.51-.68-.89-1.48-1.07-2.35-.18-.87-.1-1.76-.12-2.64,0-1.78,0-3.61,0-5.48,0-3.75,0-7.69,0-11.78,0-1.02,0-2.05,0-3.09,0-.51,0-1.06,.1-1.58,.11-.52,.26-1.05,.51-1.53,.24-.49,.54-.94,.91-1.34,.36-.41,.79-.76,1.25-1.05,.93-.59,2.03-.89,3.14-.91,4.33,0,8.56,0,12.64,0,2.04,0,4.05,0,6.01,0,.98,0,1.95,0,2.91,0,.48,0,.96,0,1.45,.05,.48,.07,.96,.17,1.4,.35,1.8,.68,3.16,2.26,3.59,4.03,.24,.89,.18,1.79,.19,2.64,0,.86,0,1.71,0,2.55,0,3.34-.01,6.44-.02,9.28,0,2.84-.02,5.4-.02,7.66-.02,1.12,.07,2.19-.21,3.14-.25,.95-.71,1.74-1.25,2.33-1.07,1.21-2.31,1.66-3.12,1.83-.41,.08-.73,.12-.95,.11-.21,0-.32,0-.32,0Z"/></g><path class="cls-16" d="M214.26,102.47c0,.08-3.84,.14-8.58,.14s-8.58-.06-8.58-.14,3.84-.14,8.58-.14,8.58,.06,8.58,.14Z"/><g><rect class="cls-15" x="94.08" y="84.58" width="4.27" height="3.27"/><rect class="cls-15" x="99.48" y="77.04" width="4.27" height="10.81"/><rect class="cls-15" x="105.42" y="81.69" width="4.27" height="6.16"/><rect class="cls-15" x="111.09" y="73.9" width="4.27" height="13.95"/><path class="cls-15" d="M95.92,81.21c-1.17,0-2.13-.95-2.13-2.13s.95-2.13,2.13-2.13,2.13,.95,2.13,2.13-.95,2.13-2.13,2.13Zm0-3.7c-.87,0-1.57,.7-1.57,1.57s.7,1.57,1.57,1.57,1.57-.7,1.57-1.57-.7-1.57-1.57-1.57Z"/><path class="cls-15" d="M102.03,73.12c-1.17,0-2.13-.95-2.13-2.13s.95-2.13,2.13-2.13,2.13,.95,2.13,2.13-.95,2.13-2.13,2.13Zm0-3.7c-.87,0-1.57,.7-1.57,1.57s.7,1.57,1.57,1.57,1.57-.7,1.57-1.57-.7-1.57-1.57-1.57Z"/><path class="cls-15" d="M107.56,78.24c-1.17,0-2.13-.95-2.13-2.13s.95-2.13,2.13-2.13,2.13,.95,2.13,2.13-.95,2.13-2.13,2.13Zm0-3.7c-.87,0-1.57,.7-1.57,1.57s.7,1.57,1.57,1.57,1.57-.7,1.57-1.57-.7-1.57-1.57-1.57Z"/><path class="cls-15" d="M113.46,70.82c-1.17,0-2.13-.95-2.13-2.13s.95-2.13,2.13-2.13,2.13,.95,2.13,2.13-.95,2.13-2.13,2.13Zm0-3.7c-.87,0-1.57,.7-1.57,1.57s.7,1.57,1.57,1.57,1.57-.7,1.57-1.57-.7-1.57-1.57-1.57Z"/><rect class="cls-15" x="107.51" y="72.2" width="5.97" height=".56" transform="translate(-12.34 121.2) rotate(-54.9)"/><rect class="cls-15" x="104.48" y="71.96" width=".56" height="3.78" transform="translate(-21.99 92.89) rotate(-43.72)"/><rect class="cls-15" x="95.73" y="74.79" width="6.28" height=".56" transform="translate(-21.05 107.13) rotate(-52.18)"/></g><path class="cls-16" d="M113.82,95.16c0,.89-.72,1.62-1.62,1.62s-1.62-.72-1.62-1.62,.72-1.62,1.62-1.62,1.62,.72,1.62,1.62Z"/><path class="cls-16" d="M154.35,73.5c0,.89-.72,1.62-1.62,1.62s-1.62-.72-1.62-1.62,.72-1.62,1.62-1.62,1.62,.72,1.62,1.62Z"/><path class="cls-16" d="M214.97,102.47c0,.89-.72,1.62-1.62,1.62s-1.62-.72-1.62-1.62,.72-1.62,1.62-1.62,1.62,.72,1.62,1.62Z"/><path class="cls-16" d="M195.62,78.08c0,.89-.72,1.62-1.62,1.62s-1.62-.72-1.62-1.62,.72-1.62,1.62-1.62,1.62,.72,1.62,1.62Z"/><g><g><rect class="cls-1" x="104.35" y="161.97" width="21.94" height="21.94" rx="5.77" ry="5.77"/><path class="cls-16" d="M120.52,183.92s.27-.01,.78-.09c.51-.07,1.27-.25,2.1-.76,.83-.5,1.76-1.34,2.31-2.62,.28-.63,.45-1.36,.47-2.14,.01-.79,0-1.63,0-2.51,0-1.76-.01-3.69-.02-5.76,0-.52,0-1.04,0-1.58,0-.54,.02-1.08-.08-1.61-.08-.53-.24-1.06-.49-1.56-.24-.5-.55-.97-.95-1.38-.77-.84-1.83-1.44-2.99-1.69-.59-.12-1.18-.12-1.81-.11-.62,0-1.25,0-1.88,0-2.53,0-5.16,0-7.84,0-1.31,0-2.59,.47-3.58,1.29-.98,.82-1.66,1.95-1.92,3.16-.13,.61-.13,1.22-.13,1.85,0,.62,0,1.24,0,1.85,0,1.22,0,2.41,0,3.58,0,1.16,0,2.3,0,3.4,0,.55-.02,1.1,.05,1.61,.06,.52,.21,1.02,.39,1.49,.8,1.88,2.53,3.11,4.23,3.38,.85,.14,1.7,.08,2.49,.1,.79,0,1.54,0,2.24,.01,1.39,0,2.6,.02,3.59,.02,.97,.01,1.73,.02,2.27,.03h.59c.13,.02,.2,.02,.2,.03s-.07,0-.2,.01h-.59c-.54,.02-1.3,.03-2.27,.04-.99,0-2.19,.02-3.59,.02-.7,0-1.45,0-2.24,.01-.79-.01-1.63,.06-2.52-.08-1.77-.27-3.58-1.53-4.42-3.49-.19-.49-.35-1.01-.41-1.55-.07-.55-.05-1.09-.05-1.64,0-1.1,0-2.24,0-3.4,0-1.16,0-2.36,0-3.58v-1.85c0-.61,0-1.27,.13-1.9,.27-1.27,.98-2.47,2.01-3.33,1.04-.85,2.39-1.35,3.77-1.35,2.69,0,5.31,0,7.84,0,.63,0,1.26,0,1.88,0,.61,0,1.25,0,1.87,.12,1.22,.26,2.33,.89,3.13,1.78,.41,.43,.74,.93,.99,1.45,.26,.52,.43,1.07,.51,1.63,.1,.56,.07,1.12,.08,1.65,0,.54,0,1.06,0,1.58,0,2.07-.01,4-.02,5.76,0,.88,0,1.72-.02,2.51-.03,.81-.22,1.56-.51,2.2-.58,1.31-1.55,2.16-2.4,2.65-.86,.5-1.64,.66-2.15,.72-.52,.06-.79,.03-.79,.03Z"/></g><g><path class="cls-6" d="M116.27,172.83c.94-.39,1.6-1.36,1.61-2.49,0-1.49-1.12-2.7-2.52-2.71-1.4,0-2.53,1.2-2.54,2.68,0,1.15,.66,2.12,1.61,2.52-3.89,.59-3.71,4.81-3.71,4.81l9.2,.04s.21-4.27-3.65-4.86Z"/><path class="cls-16" d="M119.93,177.7h-.01l-9.21-.04h0s-.04-1.09,.4-2.21c.26-.66,.63-1.21,1.1-1.63,.58-.52,1.31-.86,2.18-1-.96-.42-1.58-1.4-1.57-2.51,0-.72,.27-1.4,.75-1.91,.48-.51,1.11-.79,1.79-.79h.01c1.4,0,2.54,1.23,2.53,2.72,0,1.1-.62,2.07-1.57,2.49,.86,.14,1.59,.47,2.16,1,.46,.43,.83,.98,1.08,1.65,.43,1.13,.38,2.2,.38,2.21h0Zm-9.2-.06l9.17,.04c0-.13,.02-1.13-.38-2.19-.25-.66-.61-1.21-1.07-1.64-.58-.53-1.31-.87-2.19-1h-.05l.05-.03c.96-.4,1.59-1.38,1.6-2.48,0-1.48-1.12-2.69-2.5-2.69h-.01c-.67,0-1.29,.28-1.77,.78-.48,.5-.74,1.18-.74,1.89,0,1.11,.62,2.1,1.6,2.5l.05,.02h-.05c-.88,.14-1.63,.48-2.21,1-.47,.42-.83,.97-1.09,1.62-.41,1.05-.4,2.04-.4,2.17Z"/></g></g><g><rect class="cls-1" x="215.71" y="128.91" width="24.98" height="24.98" rx="5.77" ry="5.77"/><path class="cls-16" d="M234.92,153.89s.32,0,.91-.11c.58-.1,1.46-.34,2.38-.99,.91-.64,1.86-1.77,2.24-3.33,.2-.77,.15-1.64,.15-2.56,0-.92,0-1.89-.01-2.9,0-2.04-.01-4.27-.02-6.66,0-.6,0-1.21,0-1.83,0-.62,.03-1.25-.1-1.86-.23-1.22-.88-2.42-1.89-3.26-1-.86-2.33-1.35-3.72-1.34-1.41,0-2.85,0-4.31,0-2.93,0-5.96,0-9.07,0-1.52,0-3,.63-4.03,1.7-1.04,1.06-1.61,2.51-1.6,3.94,0,2.93,0,5.76,0,8.45,0,1.35,0,2.66,0,3.93,0,.64-.03,1.27,.06,1.86,.08,.6,.26,1.18,.53,1.7,.52,1.06,1.35,1.89,2.3,2.43,.96,.53,2.01,.75,3.02,.73,4.06,.02,7.35,.04,9.64,.05,1.13,.01,2.01,.02,2.62,.03h.68c.15,.02,.23,.02,.23,.03s-.08,0-.23,.01h-.68c-.61,.02-1.5,.03-2.62,.04-2.29,.01-5.58,.03-9.64,.05-1.03,.04-2.13-.19-3.13-.74-.99-.55-1.86-1.42-2.41-2.51-.28-.54-.47-1.14-.56-1.77-.1-.63-.07-1.26-.07-1.9,0-1.28,0-2.59,0-3.93,0-2.69,0-5.52,0-8.45,0-1.5,.59-3.03,1.68-4.14,1.08-1.12,2.63-1.8,4.23-1.79,3.11,0,6.14,0,9.07,0,1.46,0,2.9,0,4.31,0,1.44,0,2.85,.52,3.89,1.42,1.06,.89,1.73,2.14,1.97,3.42,.13,.64,.09,1.29,.1,1.9,0,.62,0,1.23,0,1.83,0,2.39-.01,4.62-.02,6.66,0,1.02,0,1.99-.01,2.9,0,.91,.04,1.8-.18,2.6-.4,1.6-1.39,2.74-2.33,3.38-.95,.66-1.85,.87-2.44,.96-.3,.05-.53,.05-.68,.05-.15,0-.23,0-.23,0Z"/></g><g><rect class="cls-1" x="101.69" y="123.31" width="24.98" height="24.98" rx="5.77" ry="5.77"/><path class="cls-16" d="M120.9,148.29s.32,0,.91-.11c.58-.1,1.46-.34,2.38-.99,.91-.64,1.86-1.77,2.24-3.33,.2-.77,.15-1.64,.15-2.56,0-.92,0-1.89-.01-2.9,0-2.04-.01-4.27-.02-6.66,0-.6,0-1.21,0-1.83,0-.62,.03-1.25-.1-1.86-.23-1.22-.88-2.42-1.89-3.26-1-.86-2.33-1.35-3.72-1.34-1.41,0-2.85,0-4.31,0-2.93,0-5.96,0-9.07,0-1.52,0-3,.63-4.03,1.7-1.04,1.06-1.61,2.51-1.6,3.94,0,2.93,0,5.76,0,8.45,0,1.35,0,2.66,0,3.93,0,.64-.03,1.27,.06,1.86,.08,.6,.26,1.18,.53,1.7,.52,1.06,1.35,1.89,2.3,2.43,.96,.53,2.01,.75,3.02,.73,4.06,.02,7.35,.04,9.64,.05,1.13,.01,2.01,.02,2.62,.03h.68c.15,.02,.23,.02,.23,.03s-.08,0-.23,.01h-.68c-.61,.02-1.5,.03-2.62,.04-2.29,.01-5.58,.03-9.64,.05-1.03,.04-2.13-.19-3.13-.74-.99-.55-1.86-1.42-2.41-2.51-.28-.54-.47-1.14-.56-1.77-.1-.63-.07-1.26-.07-1.9,0-1.28,0-2.59,0-3.93,0-2.69,0-5.52,0-8.45,0-1.5,.59-3.03,1.68-4.14,1.08-1.12,2.63-1.8,4.23-1.79,3.11,0,6.14,0,9.07,0,1.46,0,2.9,0,4.31,0,1.44,0,2.85,.52,3.89,1.42,1.06,.89,1.73,2.14,1.97,3.42,.13,.64,.09,1.29,.1,1.9,0,.62,0,1.23,0,1.83,0,2.39-.01,4.62-.02,6.66,0,1.02,0,1.99-.01,2.9,0,.91,.04,1.8-.18,2.6-.4,1.6-1.39,2.74-2.33,3.38-.95,.66-1.85,.87-2.44,.96-.3,.05-.53,.05-.68,.05-.15,0-.23,0-.23,0Z"/></g><g><g><rect class="cls-4" x="183.79" y="179.88" width="14.08" height="14.08"/><rect class="cls-4" x="201.42" y="180.73" width="14.5" height="1.2"/><rect class="cls-4" x="201.42" y="183.52" width="14.5" height="1.21"/><rect class="cls-4" x="201.42" y="186.3" width="14.5" height="1.2"/><rect class="cls-4" x="201.42" y="189.09" width="14.5" height="1.2"/><rect class="cls-4" x="201.42" y="191.87" width="14.5" height="1.2"/></g><path class="cls-4" d="M187.04,166.64h24.46c3.89,0,7.05,3.16,7.05,7.05v2.37h-38.46v-2.47c0-3.84,3.11-6.95,6.95-6.95Z"/><path class="cls-16" d="M214.96,200.48s.5,.05,1.36-.3c.42-.17,.91-.49,1.34-1,.43-.51,.78-1.23,.82-2.1,0-3.51-.02-8.57-.04-14.83,0-3.13-.01-6.56-.02-10.24,0-.46,0-.92,0-1.39,.01-.47-.01-.92-.15-1.36-.26-.88-.9-1.66-1.74-2.09-.42-.22-.89-.35-1.37-.38-.48-.03-.99,0-1.49-.01-1.01,0-2.03,0-3.07,0-8.28,0-17.38,0-26.93,.01-.58,0-1.14,.14-1.65,.4-.5,.27-.93,.67-1.24,1.14-.3,.48-.5,1.02-.54,1.58-.03,.56,0,1.16-.01,1.74,0,2.33,0,4.62,0,6.87,0,4.51,0,8.85,0,12.99,0,1.04,0,2.06,0,3.07,0,.5,0,1.01,0,1.5,0,.5-.03,.99,.07,1.45,.19,.93,.76,1.75,1.54,2.25,.38,.25,.82,.42,1.26,.51,.44,.09,.9,.06,1.37,.07,3.68,0,7.11,.01,10.24,.02,6.25,.02,11.32,.04,14.83,.05,1.74,.01,3.1,.02,4.03,.03,.45,0,.8,.01,1.05,.01,.24,0,.36,.01,.36,.01,0,0-.12,0-.36,.01-.25,0-.59,0-1.05,.01-.93,0-2.29,.02-4.03,.03-3.51,.01-8.58,.03-14.83,.05-3.13,0-6.56,.01-10.24,.02-.45,0-.93,.03-1.41-.07-.48-.09-.94-.27-1.35-.54-.83-.53-1.45-1.41-1.65-2.41-.11-.5-.07-1.01-.08-1.5,0-.5,0-1,0-1.5,0-1.01,0-2.03,0-3.07,0-4.14,0-8.49,0-12.99,0-2.25,0-4.55,0-6.87,0-.59-.01-1.15,.01-1.76,.04-.61,.25-1.2,.58-1.72,.33-.52,.8-.94,1.34-1.24,.55-.29,1.17-.44,1.79-.44,9.55,0,18.65,0,26.93,.01,1.03,0,2.06,0,3.07,0,.51,0,1-.01,1.51,.02,.51,.04,1.01,.18,1.46,.42,.9,.47,1.58,1.3,1.86,2.25,.15,.47,.17,.98,.16,1.44,0,.47,0,.93,0,1.39,0,3.68-.01,7.11-.02,10.24-.02,6.26-.02,11.33-.06,14.83-.05,.89-.42,1.64-.87,2.15-.45,.51-.95,.83-1.39,1-.43,.18-.79,.21-1.02,.24-.24,0-.36,0-.36,0Z"/></g><path class="cls-16" d="M201.42,166.64c0,.89-.72,1.62-1.62,1.62s-1.62-.72-1.62-1.62,.72-1.62,1.62-1.62,1.62,.72,1.62,1.62Z"/><g><path class="cls-16" d="M183.46,69.05v-15.16s.03-.05,.03-.07c.2-.97,.91-1.6,1.9-1.62,1.26-.03,2.51-.02,3.77,0,.89,.01,1.59,.42,2.11,1.14,.1,.14,.2,.19,.37,.19,3.6,0,7.21,0,10.81,0,1.28,0,2.11,.83,2.11,2.12,0,1.23,0,2.46,0,3.69,0,3.14,0,6.29,0,9.43,0,.64-.28,1.12-.84,1.43-.27,.15-.58,.16-.88,.16-4.96,0-9.91,0-14.87,0-.95,0-1.91,0-2.86,0-.41,0-.77-.09-1.09-.36-.3-.25-.45-.58-.55-.94Zm20.27-12.51c0-.32,0-.61,0-.9,0-.84-.46-1.3-1.3-1.3-3.6,0-7.21,0-10.81,.01-.46,0-.77-.11-1.01-.52-.33-.55-.86-.82-1.5-.83-1.22,0-2.44-.01-3.67,0-.69,0-1.15,.5-1.15,1.19,0,.72,0,1.44,0,2.16,0,.05,0,.1,0,.1,.31-.08,.6-.2,.9-.21,.86-.03,1.72-.02,2.57,0,.13,0,.29,.1,.37,.21,.18,.27-.04,.6-.39,.6-.79,0-1.58,0-2.37,0-.68,0-1.1,.41-1.1,1.09,0,3.53,0,7.06,0,10.59,0,.09,0,.18,.03,.26,.11,.42,.51,.6,1.03,.49,.05-.36,.09-.72,.14-1.08,.03-.21,.15-.34,.36-.4,.2-.05,.4-.09,.6-.16,.07-.03,.16-.1,.19-.17,.11-.26,.2-.54,.3-.81,.09-.23,.3-.45,.29-.67-.01-.22-.23-.42-.37-.63-.11-.18-.11-.34,0-.52,.61-.88,1.36-1.63,2.25-2.24,.16-.11,.33-.12,.5-.02,.17,.11,.34,.23,.52,.33,.07,.04,.18,.04,.25,.01,.45-.18,.9-.36,1.35-.56,.07-.03,.15-.11,.18-.19,.07-.19,.11-.39,.16-.59,.05-.2,.17-.32,.38-.35,1.02-.18,2.05-.18,3.07,0,.22,.04,.34,.16,.39,.37,.05,.2,.09,.4,.16,.6,.02,.07,.1,.14,.17,.17,.45,.19,.89,.38,1.35,.56,.07,.03,.19,.03,.25,0,.18-.1,.35-.22,.52-.33,.17-.1,.33-.1,.5,.01,.89,.61,1.64,1.36,2.25,2.24,.12,.17,.12,.34,0,.52-.1,.16-.19,.32-.3,.47-.08,.11-.09,.2-.02,.33,.15,.28,.31,.56,.38,.86,.1,.49,.38,.7,.85,.76,.35,.05,.43,.17,.48,.52,.04,.33,.08,.65,.12,.98,.71,.13,1.13-.16,1.13-.89-.02-3.47,0-6.93,0-10.4,0-.74-.4-1.14-1.15-1.14-3.62,0-7.24,0-10.85,0-.08,0-.15,0-.23,0-.23-.02-.38-.18-.39-.4,0-.22,.15-.39,.37-.42,.07,0,.15,0,.23,0,3.6,0,7.19,0,10.79,0,.42,0,.82,.05,1.22,.3Zm-1.96,12.96c-.02-.21-.03-.41-.06-.6-.01-.07-.08-.15-.15-.17-.19-.07-.38-.1-.58-.15-.19-.05-.31-.16-.36-.35-.16-.63-.41-1.23-.75-1.8-.1-.16-.09-.32,.01-.48,.11-.16,.2-.33,.31-.48,.07-.1,.07-.17-.01-.25-.45-.45-.88-.92-1.34-1.36-.25-.24-.27-.22-.56-.03-.1,.07-.21,.13-.31,.2-.17,.11-.33,.12-.5,.01-.56-.33-1.15-.58-1.78-.74-.2-.05-.32-.18-.36-.37-.05-.19-.09-.39-.15-.58-.02-.06-.1-.13-.16-.14-.69-.1-1.38-.1-2.07,0-.11,.01-.16,.05-.18,.15-.04,.2-.1,.4-.15,.6-.04,.18-.15,.29-.33,.33-.64,.17-1.25,.41-1.82,.75-.16,.1-.32,.09-.48-.02-.16-.11-.33-.2-.48-.31-.1-.07-.16-.06-.25,.01-.52,.4-.98,.86-1.4,1.36-.15,.18-.18,.33-.02,.51,.09,.1,.14,.22,.21,.33,.12,.18,.13,.35,.02,.54-.33,.55-.57,1.14-.73,1.76-.05,.19-.16,.31-.36,.36-.19,.05-.39,.09-.58,.15-.06,.02-.14,.07-.14,.11-.04,.22-.06,.44-.08,.68h2.18q.46,0,.54-.45c.37-2.23,2.23-4.01,4.43-4.26,2.36-.26,4.54,1,5.41,3.15,.2,.49,.3,1.02,.45,1.55h2.58Zm-3.49,0c-.13-1.92-1.86-3.99-4.47-3.91-2.14,.07-4.26,2.08-4.12,3.91h8.59Z"/><path class="cls-16" d="M190.05,56.65c0,.22-.17,.41-.39,.42-.23,.01-.43-.17-.43-.4,0-.23,.19-.42,.41-.42,.22,0,.4,.18,.41,.4Z"/></g><path class="cls-15" d="M241.67,97.69v3.57c-.11,.56-.34,1.06-.71,1.49-.07,.08-.12,.22-.12,.33,0,2.2,0,4.4,0,6.6,0,1.24-.79,2.04-2.03,2.04-5.26,0-10.52,0-15.78,0-1.23,0-2.03-.8-2.03-2.02,0-2.21,0-4.41,0-6.62,0-.11-.05-.23-.12-.31-.47-.55-.73-1.18-.72-1.92,0-.92,0-1.83,0-2.75,0-1.21,.79-2.01,2.01-2.01,1,0,2,0,3,0h.24c0-.46,0-.9,0-1.33,0-1.12,.85-2,1.97-2.01,2.36-.02,4.72-.01,7.08,0,.99,0,1.78,.7,1.93,1.68,.06,.39,.03,.8,.04,1.19,0,.15,0,.3,0,.47,.12,0,.2,0,.28,0,1.04,0,2.07,0,3.11,0,.89,.01,1.61,.6,1.82,1.47,.01,.05,.03,.09,.05,.13Zm-8.57,6.39s.05,.02,.06,.02c1.56-.12,3.1-.35,4.59-.86,.73-.25,1.43-.56,2.03-1.08,.43-.37,.66-.82,.65-1.41-.02-.89,0-1.78,0-2.67,0-.48-.24-.73-.72-.73-5.86,0-11.71,0-17.57,0-.47,0-.71,.25-.71,.71,0,.9,.01,1.81,0,2.71-.01,.55,.2,.97,.59,1.33,.39,.36,.85,.62,1.33,.83,1.08,.48,2.22,.75,3.39,.93,.66,.1,1.33,.17,2.01,.26,0-.21,0-.39,0-.56,0-.4,.26-.66,.65-.66,1.02,0,2.05,0,3.07,0,.39,0,.64,.26,.65,.65,0,.18,0,.36,0,.53Zm-10.84-.2v.16c0,1.89,0,3.78,0,5.67,0,.5,.24,.75,.75,.75,5.27,0,10.55,0,15.82,0,.5,0,.75-.24,.75-.75,0-1.89,0-3.78,0-5.67v-.21s-.07,.02-.09,.03c-1,.52-2.07,.86-3.17,1.06-.98,.18-1.98,.29-2.97,.43-.13,.02-.27-.03-.33,.17-.27,.89-.88,1.4-1.81,1.52-1.07,.14-2.04-.42-2.35-1.38-.08-.25-.21-.3-.44-.32-1.34-.11-2.68-.28-3.97-.67-.74-.23-1.46-.52-2.2-.79Zm4.42-7.81h8.49c0-.42,0-.81,0-1.21,0-.58-.28-.86-.86-.86-1.68,0-3.36,0-5.04,0-.61,0-1.22,0-1.83,0-.41,0-.74,.28-.75,.67-.02,.46,0,.92,0,1.4Zm3.32,8.09c0,.28,0,.55,0,.81,0,.43,.3,.75,.73,.82,.52,.08,.97-.13,1.07-.55,.08-.34,.05-.71,.07-1.07h-1.87Z"/><path class="cls-6" d="M107.39,142.57l.94-3.5c-.53-.96-.81-2.03-.81-3.12,0-3.57,2.9-6.47,6.47-6.47s6.47,2.9,6.47,6.47-2.9,6.47-6.47,6.47c-1.07,0-2.13-.27-3.07-.78l-3.52,.94Zm3.7-2.26l.22,.13c.81,.48,1.74,.74,2.68,.74,2.89,0,5.24-2.35,5.24-5.24s-2.35-5.24-5.24-5.24-5.24,2.35-5.24,5.24c0,.95,.27,1.89,.77,2.72l.14,.22-.52,1.96,1.97-.53Z"/><path class="cls-5" d="M116.32,136.88c-.27-.16-.61-.34-.93-.21-.24,.1-.39,.47-.55,.67-.08,.1-.18,.11-.3,.06-.9-.36-1.59-.96-2.09-1.79-.08-.13-.07-.23,.03-.35,.15-.18,.34-.38,.38-.62,.04-.24-.07-.52-.17-.73-.13-.27-.27-.66-.54-.81-.25-.14-.58-.06-.8,.12-.38,.31-.57,.8-.56,1.29,0,.14,.02,.28,.05,.41,.08,.32,.23,.62,.39,.91,.13,.22,.26,.42,.41,.62,.48,.66,1.08,1.23,1.78,1.65,.35,.21,.72,.4,1.11,.53,.43,.14,.82,.29,1.29,.2,.49-.09,.98-.4,1.17-.87,.06-.14,.09-.3,.05-.44-.07-.31-.48-.49-.73-.64Z"/><g><g><path class="cls-9" d="M207.13,152.52l-7.25-25.51h-63.36l-8.26,25.43c-.5,1.54,.63,3.13,2.24,3.13h28.94l1.17-1.17h13.67l1.17,1.17h29.41c1.57,0,2.7-1.52,2.26-3.04Z"/><g class="cls-12"><path d="M207.13,152.52l-7.25-25.51h-63.36l-8.26,25.43c-.5,1.54,.63,3.13,2.24,3.13h28.94l1.17-1.17h13.67l1.17,1.17h29.41c1.57,0,2.7-1.52,2.26-3.04Z"/></g><g><path class="cls-9" d="M136.49,126.35v-37.43c0-1.48,1.2-2.69,2.67-2.69h58.22c1.48,0,2.67,1.2,2.67,2.69v37.43h-63.56Z"/><g><rect class="cls-1" x="140.33" y="89.94" width="55.88" height="33.29"/><path class="cls-16" d="M196.21,123.22s0-.21-.01-.6v-1.75c-.02-1.54-.03-3.79-.04-6.67-.01-5.77-.03-14.08-.06-24.26l.11,.11c-15.07,0-34.6,.02-55.87,.03h0l.14-.14c0,11.79,0,23.04-.01,33.29l-.13-.13c16.37,.03,30.32,.05,40.19,.07,4.94,.02,8.85,.03,11.54,.04,1.34,0,2.37,.01,3.08,.02,.35,0,.61,0,.8,0,.18,0,.28,0,.28,0,0,0-.08,0-.26,0-.18,0-.44,0-.78,0-.7,0-1.72,0-3.05,.02-2.68,0-6.58,.02-11.51,.04-9.89,.02-23.87,.04-40.28,.07h-.13v-.13c0-10.24,0-21.5-.01-33.29v-.14h.15c21.27,.01,40.81,.02,55.87,.03h.11v.11c-.03,10.21-.05,18.55-.06,24.33-.01,2.87-.02,5.11-.03,6.65,0,.75,0,1.33-.01,1.73,0,.39-.01,.58-.01,.58Z"/></g><path class="cls-16" d="M169.3,88.18c0,.56-.46,1.01-1.03,1.01s-1.03-.45-1.03-1.01,.46-1.01,1.03-1.01,1.03,.45,1.03,1.01Z"/></g><path class="cls-9" d="M207.13,151.58l-7.25-25.51h-63.36l-8.26,25.43c-.5,1.54,.63,3.13,2.24,3.13h28.94l1.17-1.17h13.67l1.17,1.17h29.41c1.57,0,2.7-1.52,2.26-3.04Z"/><path class="cls-14" d="M195.38,127.7l-55.22-.19c-.58,0-1.09,.31-1.25,.77l-4.43,12.56c-.24,.68,.38,1.37,1.24,1.37h63.9c.86,0,1.48-.68,1.24-1.36l-4.25-12.37c-.16-.46-.66-.77-1.24-.78Z"/><g class="cls-13"><path d="M178.23,151.8h-21.8c-.89,0-1.55-.92-1.32-1.87l1.23-5.15c.16-.66,.7-1.12,1.32-1.12h19.47c.64,0,1.19,.48,1.33,1.16l1.09,5.15c.2,.94-.45,1.83-1.33,1.83Z"/></g><g><path class="cls-16" d="M178.16,131.68l-.57-2.63c-.04-.18-.2-.31-.38-.31h-3.4c-.24,0-.42,.21-.39,.45l.38,2.63c.03,.19,.19,.34,.39,.34h3.59c.25,0,.44-.24,.38-.48Z"/><path class="cls-16" d="M167.91,131.74l-.24-2.64c-.02-.2-.19-.36-.39-.36h-3.47c-.22,0-.4,.18-.39,.41l.1,2.65c0,.21,.18,.38,.39,.38h3.62c.23,0,.41-.2,.39-.43Z"/><path class="cls-16" d="M173.3,131.71l-.38-2.63c-.03-.19-.19-.34-.39-.34h-4c-.23,0-.41,.2-.39,.43l.24,2.64c.02,.2,.19,.36,.39,.36h4.13c.24,0,.42-.22,.39-.45Z"/><path class="cls-16" d="M147.95,131.78l.54-2.4c.07-.33-.18-.64-.51-.64h-3.29c-.24,0-.44,.16-.51,.38l-.69,2.4c-.1,.34,.16,.67,.51,.67h3.44c.25,0,.46-.18,.51-.42Z"/><path class="cls-16" d="M195.92,131.59l-1-2.6c-.06-.15-.2-.25-.37-.25h-6.46c-.27,0-.46,.27-.37,.53l.97,2.61c.06,.15,.2,.26,.37,.26h6.49c.27,0,.46-.29,.37-.54Z"/><path class="cls-16" d="M162.55,128.74h-3.76c-.21,0-.38,.16-.39,.37l-.13,2.65c-.01,.22,.17,.41,.39,.41h3.98c.22,0,.4-.19,.39-.41l-.1-2.65c0-.21-.18-.38-.39-.38Z"/><path class="cls-16" d="M143.1,128.74h-2.62c-.22,0-.42,.14-.5,.35l-.86,2.41c-.12,.34,.13,.71,.5,.71h2.8c.24,0,.44-.16,.51-.39l.69-2.41c.1-.34-.16-.67-.51-.67Z"/><path class="cls-16" d="M152.81,131.84l.35-2.66c.03-.23-.15-.44-.39-.44h-3.34c-.18,0-.34,.13-.38,.31l-.6,2.67c-.05,.25,.13,.48,.38,.48h3.59c.2,0,.36-.15,.39-.35Z"/><path class="cls-16" d="M153.65,129.08l-.35,2.66c-.03,.23,.15,.44,.39,.44h3.72c.21,0,.38-.17,.39-.38l.13-2.66c.01-.22-.17-.41-.39-.41h-3.5c-.2,0-.36,.15-.39,.34Z"/><path class="cls-16" d="M183.27,131.64l-.78-2.62c-.05-.17-.2-.28-.38-.28h-3.62c-.25,0-.44,.23-.38,.47l.57,2.63c.04,.18,.2,.31,.38,.31h3.83c.26,0,.45-.26,.38-.51Z"/><path class="cls-16" d="M188.09,131.61l-.97-2.61c-.06-.15-.2-.26-.37-.26h-3.33c-.26,0-.45,.25-.38,.5l.78,2.62c.05,.17,.2,.28,.38,.28h3.52c.27,0,.46-.28,.37-.53Z"/><path class="cls-16" d="M162.7,132.77h-4.1c-.21,0-.38,.16-.39,.37l-.13,2.74c-.01,.22,.17,.41,.39,.41h4.33c.22,0,.4-.19,.39-.41l-.1-2.73c0-.21-.18-.38-.39-.38Z"/><path class="cls-16" d="M189.62,135.72l-1-2.69c-.06-.15-.2-.26-.37-.26h-3.63c-.26,0-.45,.25-.38,.5l.8,2.7c.05,.17,.2,.28,.38,.28h3.84c.27,0,.46-.28,.37-.53Z"/><path class="cls-16" d="M184.49,135.75l-.8-2.7c-.05-.17-.2-.28-.38-.28h-3.95c-.25,0-.44,.23-.38,.47l.58,2.71c.04,.18,.2,.31,.38,.31h4.17c.26,0,.45-.26,.38-.51Z"/><path class="cls-16" d="M153.15,136.3h4.06c.21,0,.38-.17,.39-.38l.13-2.74c.01-.22-.17-.41-.39-.41h-3.83c-.2,0-.36,.15-.39,.34l-.36,2.75c-.03,.23,.15,.44,.39,.44Z"/><path class="cls-16" d="M164.06,136.28h3.84c.23,0,.41-.2,.39-.43l-.25-2.73c-.02-.2-.19-.36-.39-.36h-3.69c-.22,0-.4,.18-.39,.41l.1,2.73c0,.21,.18,.38,.39,.38Z"/><path class="cls-16" d="M168.52,133.2l.25,2.72c.02,.2,.19,.36,.39,.36h4.34c.24,0,.42-.22,.39-.45l-.39-2.72c-.03-.19-.19-.34-.39-.34h-4.2c-.23,0-.41,.2-.39,.43Z"/><path class="cls-16" d="M179.05,135.79l-.59-2.71c-.04-.18-.2-.31-.38-.31h-3.69c-.24,0-.42,.21-.39,.45l.39,2.72c.03,.19,.19,.34,.39,.34h3.89c.25,0,.44-.24,.38-.48Z"/><path class="cls-16" d="M147.24,132.77h-8.19c-.16,0-.31,.1-.37,.25l-1.07,2.77c-.1,.26,.09,.53,.37,.53h8.64c.18-.01,.34-.14,.38-.32l.62-2.76c.05-.24-.13-.48-.38-.48Z"/><path class="cls-16" d="M147.91,136.3h3.98c.2,0,.36-.15,.39-.35l.36-2.75c.03-.23-.15-.44-.39-.44h-3.72c-.18,0-.34,.13-.38,.31l-.62,2.75c-.05,.25,.13,.48,.38,.48Z"/><path class="cls-16" d="M194.51,136.24h2.56c.28,0,.47-.28,.36-.54l-1.08-2.68c-.06-.15-.2-.25-.36-.25h-2.35c-.27,0-.46,.26-.37,.51l.87,2.69c.05,.16,.2,.27,.37,.27Z"/><path class="cls-16" d="M193.56,135.73l-.87-2.69c-.05-.16-.2-.27-.37-.27h-2.73c-.27,0-.46,.27-.37,.53l1,2.69c.06,.15,.2,.26,.37,.26h2.59c.27,0,.45-.26,.37-.52Z"/><path class="cls-16" d="M152.77,140.91h4.02c.32,0,.58-.24,.59-.56l.14-2.86c.02-.34-.25-.62-.59-.62h-3.79c-.3,0-.55,.22-.59,.51l-.37,2.85c-.05,.35,.23,.67,.58,.67Z"/><path class="cls-16" d="M197.59,136.88h-6.18c-.41,0-.7,.41-.55,.8l1.09,2.92c.09,.23,.31,.38,.55,.38h6.23c.42,.01,.7-.41,.55-.79l-1.14-2.93c-.09-.23-.31-.38-.55-.38Z"/><path class="cls-16" d="M147.19,137.34l-.64,2.84c-.08,.37,.2,.72,.58,.72h3.98c.3,0,.55-.21,.59-.51l.37-2.85c.05-.35-.23-.67-.59-.67h-3.72c-.28,0-.52,.19-.58,.46Z"/><path class="cls-16" d="M141.79,137.31l-.84,2.94c-.09,.32,.15,.65,.49,.65h4.06c.24,0,.45-.16,.5-.39l.67-3c.07-.32-.17-.62-.5-.62l-3.9,.05c-.22,0-.42,.15-.48,.37Z"/><path class="cls-16" d="M179.92,137.59l.63,2.9c.06,.27,.3,.47,.58,.47h4.12c.4,0,.68-.37,.57-.75l-.86-2.91c-.07-.25-.3-.42-.57-.42h-3.89c-.38,0-.66,.35-.58,.71Z"/><path class="cls-16" d="M158,137.44l-.14,2.86c-.02,.34,.25,.62,.59,.62l20.98,.03c.38,0,.66-.35,.58-.71l-.63-2.9c-.06-.27-.3-.47-.58-.47h-20.21c-.31,0-.57,.25-.59,.56Z"/><path class="cls-16" d="M137.2,137.19l-1.13,3.07c-.11,.31,.11,.63,.44,.63h3.41c.21,0,.39-.13,.45-.33l.88-3.08c.09-.3-.14-.6-.45-.6h-3.16c-.2,0-.37,.12-.44,.31Z"/><path class="cls-16" d="M185.54,137.64l.86,2.91c.07,.25,.3,.42,.56,.42h3.76c.41,0,.7-.4,.55-.79l-1.08-2.92c-.09-.23-.31-.38-.55-.38h-3.54c-.39,0-.68,.38-.57,.76Z"/></g><path class="cls-16" d="M200.1,126.16c0,.08-14.2,.14-31.72,.14s-31.72-.06-31.72-.14,14.2-.14,31.72-.14,31.72,.06,31.72,.14Z"/></g><g><path class="cls-7" d="M155.99,99.5c.59-.49,1.23-.89,1.91-1.2l.12-2.09,3.42-.57,.79,1.94c.74,.07,1.48,.24,2.2,.51l1.56-1.39,2.82,2.01-.81,1.93c.49,.59,.89,1.23,1.2,1.91l2.09,.12,.57,3.42-1.94,.79c-.07,.74-.24,1.48-.51,2.2l1.39,1.56-2.01,2.82-1.93-.81c-.59,.49-1.23,.89-1.91,1.2l-.12,2.09-3.42,.57-.79-1.94c-.74-.07-1.48-.24-2.2-.51l-1.56,1.39-2.82-2.01,.81-1.93c-.49-.59-.89-1.23-1.2-1.91l-2.09-.12-.57-3.42,1.94-.79c.07-.74,.24-1.48,.51-2.2l-1.39-1.56,2.01-2.82,1.93,.81h0Zm2.51,4.29c-1.19,1.67-.8,3.99,.87,5.18,1.67,1.19,3.99,.8,5.18-.87,1.19-1.67,.8-3.99-.87-5.18-1.67-1.19-3.99-.8-5.18,.87Z"/><path class="cls-7" d="M174.81,108.2c.4-.33,.84-.6,1.3-.81l.08-1.41,2.31-.39,.54,1.31c.5,.05,1,.16,1.49,.34l1.06-.94,1.91,1.36-.55,1.31c.33,.4,.6,.84,.81,1.3l1.41,.08,.39,2.31-1.31,.54c-.05,.5-.16,1-.34,1.49l.94,1.06-1.36,1.91-1.31-.55c-.4,.33-.84,.6-1.3,.81l-.08,1.41-2.31,.39-.54-1.31c-.5-.05-1-.16-1.49-.34l-1.06,.94-1.91-1.36,.55-1.31c-.33-.4-.6-.84-.81-1.3l-1.41-.08-.39-2.31,1.31-.54c.05-.5,.16-1,.34-1.49l-.94-1.06,1.36-1.91,1.31,.55h0Zm1.7,2.9c-.81,1.13-.54,2.7,.59,3.51,1.13,.81,2.7,.54,3.51-.59s.54-2.7-.59-3.51c-1.13-.81-2.7-.54-3.51,.59Z"/><path class="cls-7" d="M173.72,94.68c.35-.29,.74-.53,1.15-.72l.07-1.25,2.05-.34,.48,1.16c.45,.04,.89,.14,1.32,.3l.94-.83,1.69,1.2-.48,1.16c.29,.35,.53,.74,.72,1.15l1.25,.07,.34,2.05-1.16,.48c-.04,.45-.14,.89-.3,1.32l.83,.94-1.2,1.69-1.16-.48c-.35,.29-.74,.53-1.15,.72l-.07,1.25-2.05,.34-.48-1.16c-.45-.04-.89-.14-1.32-.3l-.94,.83-1.69-1.2,.48-1.16c-.29-.35-.53-.74-.72-1.15l-1.25-.07-.34-2.05,1.16-.48c.04-.45,.14-.89,.3-1.32l-.83-.94,1.2-1.69,1.16,.48h0Zm1.5,2.57c-.71,1-.48,2.39,.52,3.11,1,.71,2.39,.48,3.1-.52s.48-2.39-.52-3.11c-1-.71-2.39-.48-3.1,.52Z"/></g></g><g><path class="cls-16" d="M150.16,115.01v-16.5h5.16c.94,0,1.73,.16,2.37,.47,.63,.31,1.11,.76,1.44,1.35s.49,1.29,.49,2.13c0,.67-.1,1.27-.3,1.8-.2,.53-.47,.97-.82,1.32-.34,.35-.74,.62-1.19,.82v.1c.48,.14,.92,.36,1.31,.66,.39,.3,.7,.71,.94,1.23,.23,.52,.35,1.19,.35,2.01,0,1.1-.22,2-.66,2.68s-1.07,1.18-1.89,1.49c-.82,.31-1.8,.47-2.95,.47h-4.25Zm3.07-9.63h1.59c.4,0,.73-.09,.98-.28,.26-.18,.44-.44,.56-.78s.18-.74,.18-1.2c0-.59-.14-1.06-.43-1.42-.29-.35-.71-.53-1.27-.53h-1.61v4.2Zm0,6.92h1.68c.67,0,1.15-.18,1.43-.55,.28-.37,.42-.94,.42-1.71,0-.43-.06-.8-.18-1.12-.12-.31-.31-.56-.58-.73-.26-.18-.61-.26-1.04-.26h-1.73v4.37Z"/><path class="cls-16" d="M161.59,115.01v-16.5h4.47l1.68,8.53c.03,.21,.08,.49,.14,.84,.06,.35,.13,.71,.19,1.08,.06,.37,.12,.7,.17,1.01h.17c.03-.21,.08-.48,.14-.8,.06-.33,.13-.68,.19-1.04,.06-.37,.12-.72,.17-1.06l1.68-8.55h4.4v16.5h-3.03v-8.98c0-.35,0-.71,.02-1.08,.02-.37,.03-.7,.05-1.01,.02-.3,.02-.55,.02-.74h-.14c-.03,.16-.07,.36-.12,.61-.05,.25-.1,.5-.14,.76-.05,.26-.1,.5-.14,.72l-1.99,9.73h-2.5l-1.99-9.73c-.03-.14-.07-.34-.12-.59-.05-.25-.1-.51-.14-.78-.05-.27-.1-.51-.14-.72h-.14c.03,.24,.05,.53,.05,.86s0,.68,.01,1.02c0,.34,.01,.66,.01,.95v8.98h-2.95Z"/><path class="cls-16" d="M181.65,115.29c-.69,0-1.33-.07-1.91-.22-.58-.14-1.09-.4-1.53-.77-.43-.37-.77-.88-1.01-1.54s-.36-1.5-.36-2.52v-.46h3.03v.48c0,.59,.06,1.06,.18,1.39s.3,.58,.55,.72c.25,.14,.57,.22,.97,.22,.22,0,.42-.02,.6-.07,.18-.05,.34-.13,.48-.25,.14-.12,.26-.26,.35-.42,.09-.16,.15-.36,.19-.59,.04-.23,.06-.49,.06-.78,0-.42-.09-.77-.26-1.06-.18-.29-.41-.54-.71-.74-.3-.21-.62-.4-.99-.56-.36-.17-.74-.34-1.14-.53-.4-.18-.78-.4-1.14-.64-.36-.24-.69-.54-.98-.89-.3-.35-.53-.77-.71-1.26-.18-.49-.26-1.08-.26-1.79,0-.86,.12-1.6,.37-2.21,.25-.61,.59-1.1,1.02-1.49s.92-.66,1.48-.84c.55-.18,1.13-.26,1.74-.26,.67,0,1.28,.08,1.83,.24,.54,.16,1.02,.42,1.42,.77,.4,.35,.71,.82,.92,1.39,.22,.58,.33,1.29,.33,2.14v.53h-2.98v-.36c0-.43-.04-.8-.13-1.09-.09-.3-.24-.52-.44-.68-.21-.16-.5-.24-.89-.24-.29,0-.54,.06-.77,.18-.22,.12-.4,.31-.52,.56-.12,.26-.18,.59-.18,1.01s.08,.8,.25,1.09,.4,.54,.71,.74c.3,.2,.64,.39,1,.56s.74,.35,1.14,.53c.4,.18,.78,.38,1.14,.62s.69,.53,1,.88c.3,.34,.54,.77,.71,1.26,.17,.5,.25,1.1,.25,1.8,0,1.19-.2,2.16-.59,2.92s-.95,1.32-1.67,1.68c-.72,.36-1.57,.54-2.55,.54Z"/></g><g><path class="cls-15" d="M163.56,63.65c-.03,.13-.06,.26-.1,.39-.28,.84-.85,1.39-1.71,1.59-.86,.19-1.62-.05-2.2-.71-1.3-1.47-2.58-2.95-3.87-4.43-1.04-1.19-2.07-2.38-3.11-3.57-.02-.02-.04-.05-.06-.07-.83,.47-1.33,.38-1.87-.37-.13,.15-.27,.28-.38,.43-.03,.04-.03,.12-.02,.18,.09,.71-.21,1.32-.82,1.63-.6,.3-1.3,.19-1.8-.31-1.07-1.07-2.14-2.14-3.21-3.21-.5-.5-.61-1.21-.29-1.82,.31-.59,.95-.9,1.64-.8,.06,0,.15-.02,.19-.06,1.48-1.48,2.97-2.96,4.44-4.44,.04-.04,.08-.12,.07-.18-.18-.94,.47-1.7,1.25-1.83,.01,0,.02-.01,.03-.02h.46c.48,.11,.82,.41,1.15,.75,.97,.98,1.95,1.95,2.92,2.93,.79,.8,.56,2.09-.46,2.51-.24,.1-.53,.11-.8,.11-.15,0-.25,.01-.35,.12-.09,.1-.21,.19-.32,.28,.73,.44,.87,1.23,.36,1.87,.63,.55,1.26,1.1,1.89,1.65,1.35,1.17,2.69,2.35,4.04,3.52,.66,.58,1.32,1.17,1.99,1.73,.5,.42,.81,.94,.92,1.58v.54Zm-16.96-10.64l3.2,3.21,4.29-4.29-3.21-3.2-4.28,4.29Zm6.45,3.29l4.08,4.69,1.73-1.72-4.69-4.09-1.12,1.12Zm7.61,4.54l-1.96,1.96c.48,.54,.95,1.12,1.46,1.66,.6,.63,1.59,.6,2.19-.03,.6-.63,.57-1.58-.07-2.17-.09-.09-.19-.17-.29-.25-.45-.39-.9-.79-1.33-1.16Zm-9.46-13.26c0,.24,.1,.43,.26,.59,.81,.81,1.62,1.62,2.44,2.44,.26,.26,.52,.53,.79,.78,.23,.22,.51,.28,.81,.15,.29-.12,.45-.35,.47-.66,.02-.25-.09-.45-.26-.63-1.05-1.05-2.1-2.1-3.15-3.15-.04-.04-.08-.08-.13-.12-.25-.19-.53-.22-.81-.08-.27,.14-.41,.37-.42,.68Zm-5.75,5.75c-.32,.01-.56,.16-.69,.46-.13,.31-.09,.6,.14,.83,1.09,1.1,2.18,2.19,3.27,3.28,.3,.3,.77,.29,1.07,0,.3-.3,.31-.77,0-1.08-1.08-1.09-2.16-2.17-3.25-3.25-.15-.15-.33-.23-.55-.23Zm5.86,2.6c0,.22,.08,.34,.23,.41,.17,.07,.32,.02,.45-.11,.7-.7,1.4-1.4,2.1-2.1,.19-.19,.2-.42,.04-.58-.16-.16-.39-.15-.58,.04-.7,.7-1.4,1.4-2.1,2.1-.08,.08-.11,.19-.14,.24Zm8.19,3.9l-1.81,1.8,.44,.51,1.87-1.87-.5-.44Z"/><path class="cls-15" d="M153.67,63.18c.22,.21,.44,.4,.62,.62,.37,.46,.41,1.01,.36,1.56-.02,.18-.15,.29-.33,.32-.06,0-.13,0-.19,0-3.22,0-6.43,0-9.65,0-.43,0-.53-.11-.55-.54-.03-.84,.28-1.49,1.02-1.92-.21-.34-.31-.69-.22-1.08,.13-.59,.65-1.05,1.25-1.05,2.21,0,4.42-.01,6.63,0,.96,0,1.57,1.06,1.15,1.92-.03,.06-.07,.12-.09,.16Zm.22,1.73c0-.64-.51-1.14-1.18-1.14-1.87,0-3.73,0-5.6,0-.43,0-.87,0-1.3,0-.62,.01-1.15,.56-1.1,1.14h9.17Zm-4.59-3.06c-1.06,0-2.12,0-3.18,0-.39,0-.65,.23-.65,.57,0,.34,.26,.58,.65,.58,2.12,0,4.24,0,6.35,0,.4,0,.66-.23,.66-.58,0-.34-.26-.57-.66-.57-1.06,0-2.12,0-3.18,0Z"/><path class="cls-15" d="M150.92,49.89c.09,.07,.24,.13,.28,.23,.05,.1,.02,.25,0,.38,0,.05-.07,.09-.11,.13-.51,.51-1.01,1.01-1.52,1.52-.13,.13-.27,.2-.45,.14-.29-.1-.35-.43-.12-.66,.52-.52,1.04-1.04,1.56-1.56,.02-.02,.04-.05,.07-.06,.07-.04,.15-.07,.27-.12Z"/><path class="cls-15" d="M148.18,53.39c-.21,0-.38-.16-.38-.37,0-.21,.16-.38,.37-.39,.21,0,.4,.18,.39,.39,0,.21-.17,.37-.38,.37Z"/></g><g><path class="cls-6" d="M224.72,140.58v-.21c0-2.17,0-4.34,0-6.5,0-.53,.21-.74,.74-.74,3.03,0,6.06,0,9.08,0,.26,0,.47,.08,.65,.27,.51,.52,1.03,1.04,1.55,1.55,.17,.17,.25,.36,.25,.6,0,4.2,0,8.4,0,12.6,0,.49-.23,.72-.72,.72-2.39,0-4.77,0-7.16,0-.16,0-.26,.05-.36,.19-1.21,1.73-3.41,2.58-5.46,2.13-2.13-.47-3.76-2.15-4.14-4.25-.55-3.03,1.5-5.86,4.54-6.28,.33-.05,.67-.04,1.02-.07Zm4.52,7.69h7.16v-12.66c-.39,0-.77-.01-1.14,0-.5,.02-.78-.04-.75-.74,.02-.38,0-.76,0-1.15h-9.2v6.95c1.72,.35,3.03,1.27,3.84,2.82,.81,1.56,.8,3.16,.09,4.78Zm-.07-2.31c0-2.62-2.11-4.76-4.73-4.78-2.63-.01-4.79,2.12-4.79,4.76,0,2.61,2.13,4.76,4.75,4.77,2.63,.01,4.77-2.12,4.78-4.75Zm5.94-10.95h.81l-.81-.81v.81Z"/><path class="cls-3" d="M228.02,137.52c0-.45,0-.89,0-1.34,0-.2,.06-.33,.24-.43,.8-.45,1.59-.91,2.38-1.37,.16-.09,.29-.09,.44,0,.8,.46,1.59,.92,2.39,1.38,.16,.09,.23,.22,.23,.4,0,.91,0,1.82,0,2.73,0,.19-.07,.32-.24,.42-.79,.45-1.59,.91-2.38,1.37-.16,.09-.3,.09-.46,0-.79-.46-1.58-.92-2.38-1.37-.16-.09-.23-.21-.23-.4,0-.46,0-.93,0-1.39Zm3.12,2.43c.05-.02,.08-.03,.1-.04,.59-.34,1.17-.67,1.76-1.02,.06-.03,.1-.13,.11-.2,0-.65,0-1.29,0-1.94,0-.05,0-.09-.01-.17-.08,.04-.13,.07-.19,.11-.49,.28-.96,.57-1.46,.83-.24,.12-.32,.27-.31,.54,.02,.62,0,1.24,0,1.89Zm-2.53-3.35s-.01,.06-.01,.08c0,.68,0,1.35,0,2.03,0,.06,.07,.15,.13,.19,.57,.34,1.14,.66,1.71,.99,.03,.02,.06,.03,.11,.05v-.2c0-.6,0-1.21,0-1.81,0-.27,0-.28-.32-.38,0,.2,0,.39,0,.58-.01,.28-.22,.4-.47,.26-.22-.12-.43-.25-.65-.37-.14-.08-.21-.2-.2-.36,0-.22-.02-.44,0-.66,.03-.24-.08-.35-.3-.41Zm.3-.55c.2,.21,.37,.18,.57,.04,.32-.21,.66-.39,.99-.58l.66-.38c-.18-.17-.35-.23-.54-.05-.03,.02-.06,.04-.09,.06l-1.6,.92Zm1.64,.95c.19,.21,.35,.18,.56,.05,.38-.24,.78-.46,1.17-.68,.17-.1,.33-.19,.5-.29q-.27-.21-.54-.05c-.29,.17-.58,.34-.87,.5-.27,.16-.55,.32-.82,.48Zm-.74-.43c.07,.1,.14,.1,.24,.04,.24-.15,.49-.28,.73-.42,.36-.21,.72-.42,1.09-.63v-.06c-.07,0-.15-.02-.2,0-.62,.35-1.24,.71-1.85,1.07Zm-.19,1.05c.07-.32,.04-.43-.11-.49-.06,.32-.04,.43,.11,.49Z"/><path class="cls-6" d="M232.1,142.29c-.88,0-1.76,0-2.64,0-.07,0-.14,0-.2,0-.15-.03-.23-.12-.24-.26,0-.14,.06-.25,.2-.29,.07-.02,.14-.02,.22-.02,1.78,0,3.55,0,5.33,0,.07,0,.15,0,.22,.02,.14,.04,.21,.15,.2,.29,0,.14-.09,.24-.23,.26-.07,.01-.13,0-.2,0-.89,0-1.77,0-2.66,0Z"/><path class="cls-6" d="M232.52,143.34c.75,0,1.5,0,2.25,0,.05,0,.1,0,.15,0,.16,.02,.26,.11,.27,.27,.01,.15-.09,.28-.25,.31-.05,0-.11,0-.16,0-1.51,0-3.02,0-4.52,0-.05,0-.11,0-.16,0-.16-.03-.25-.13-.25-.29,0-.15,.11-.27,.27-.29,.05,0,.11,0,.16,0,.75,0,1.5,0,2.25,0Z"/><path class="cls-6" d="M232.7,147.19c-.7,0-1.39,0-2.09,0-.06,0-.12,0-.18,0-.15-.04-.23-.14-.23-.29,0-.15,.1-.25,.25-.28,.05,0,.1,0,.15,0,1.4,0,2.81,0,4.21,0,.02,0,.05,0,.07,0,.19,0,.31,.12,.31,.29,0,.17-.12,.29-.31,.29-.43,0-.85,0-1.28,0-.3,0-.6,0-.9,0Z"/><path class="cls-6" d="M232.72,145.56c-.68,0-1.35,0-2.03,0-.06,0-.12,0-.18,0-.16-.02-.25-.12-.27-.28-.01-.15,.1-.27,.27-.3,.05,0,.1,0,.15,0,1.38,0,2.76,0,4.14,0,.07,0,.14,0,.2,.02,.14,.04,.21,.15,.2,.29,0,.14-.08,.23-.22,.26-.07,.02-.15,.01-.22,.01-.68,0-1.35,0-2.03,0Z"/><path class="cls-3" d="M225.21,143.88c.48,.26,.96,.52,1.44,.78,.56,.31,1.11,.61,1.66,.92,.34,.19,.4,.44,.21,.78-.07,.12-.14,.24-.21,.36-.18,.3-.43,.37-.73,.19-.95-.57-1.9-1.15-2.85-1.72-.07-.04-.14-.08-.21-.13-.08,.09-.09,.17-.03,.29,.14,.28-.2,.94-.52,.98-.1,.01-.22-.01-.31-.06-.54-.3-1.07-.61-1.6-.92-.26-.15-.32-.37-.17-.64,.06-.11,.11-.24,.2-.33,.1-.1,.23-.16,.35-.23,.07-.04,.16-.06,.21-.11,.32-.4,.58-.85,.76-1.33,.02-.05,.01-.13-.01-.18-.07-.15-.07-.29,0-.44,.07-.13,.14-.26,.22-.38,.13-.2,.35-.27,.56-.15,.57,.32,1.13,.65,1.69,.98,.19,.11,.24,.33,.15,.53-.07,.15-.15,.31-.26,.44-.08,.09-.21,.13-.32,.19-.08,.04-.17,.08-.25,.11v.06Zm-1.31,1.04l.88-1.52-.76-.44-.88,1.52,.76,.44Zm4.13,1.16l-3.15-1.72-.1,.17,3.06,1.87,.18-.32Zm-5.54-1.22v.06c.43,.25,.86,.5,1.29,.74,.03,.02,.08,0,.12-.01-.43-.3-.86-.55-1.29-.79-.03-.02-.08,0-.13,0Zm1.58-2.68l-.05,.04s.04,.09,.08,.11c.15,.09,.3,.18,.46,.27,.27,.16,.54,.31,.82,.47l.04-.03s-.02-.09-.05-.11c-.43-.25-.86-.5-1.29-.75Z"/><path class="cls-3" d="M224.22,147.28c.07,0,.12,.01,.16,.02,.21,.03,.34,.16,.35,.38,0,.26,0,.52,0,.79,0,.29-.14,.44-.44,.44-.4,0-.8,0-1.21,0-.58,0-1.16,0-1.74,0-.36,0-.5-.14-.5-.5,0-.21,0-.43,0-.64,0-.33,.12-.46,.46-.48,.02,0,.05,0,.09-.01,0-.12,0-.23,0-.34,0-.25,.11-.36,.36-.36,.7,0,1.4,0,2.1,0,.25,0,.35,.11,.35,.36,0,.11,0,.22,0,.35Zm-2.77,1.03h2.69v-.41h-2.69v.41Zm.55-1.14l-.02,.04s.08,.07,.11,.07c.48,0,.96,0,1.44,0,.04,0,.07-.05,.11-.08l-.03-.04h-1.62Z"/></g><g><path class="cls-4" d="M204.92,211.34c.67-.4,1.38-.71,2.11-.92l.43-2.09,3.53-.06,.51,2.07c.74,.18,1.46,.46,2.14,.84l1.78-1.17,2.54,2.45-1.11,1.82c.4,.67,.71,1.38,.92,2.11l2.09,.43,.06,3.53-2.07,.51c-.18,.74-.46,1.46-.84,2.14l1.17,1.79-2.45,2.54-1.82-1.11c-.67,.4-1.38,.71-2.11,.92l-.44,2.09-3.53,.06-.51-2.07c-.74-.18-1.46-.46-2.14-.84l-1.78,1.17-2.54-2.45,1.11-1.82c-.4-.67-.71-1.38-.92-2.11l-2.09-.43-.06-3.53,2.07-.51c.18-.74,.46-1.46,.84-2.14l-1.17-1.78,2.45-2.54,1.83,1.11h0Zm2.45,4.22c-2.22,1.57-2.16,4.82,.11,6.31,1.27,.83,2.97,.8,4.21-.07,2.22-1.57,2.16-4.82-.11-6.31-1.27-.83-2.97-.8-4.21,.07Z"/><path class="cls-4" d="M62.08,45.58c.75,.21,1.46,.52,2.12,.91l1.82-1.12,2.47,2.53-1.16,1.79c.37,.66,.66,1.38,.86,2.14l2.08,.5-.04,3.53-2.09,.45c-.21,.75-.52,1.46-.91,2.12l1.12,1.82-2.53,2.47-1.79-1.16c-.66,.37-1.38,.66-2.14,.86l-.5,2.08-3.53-.04-.45-2.09c-.75-.21-1.46-.52-2.12-.91l-1.82,1.12-2.47-2.53,1.16-1.79c-.37-.66-.66-1.38-.86-2.14l-2.08-.5,.04-3.53,2.09-.45c.21-.75,.52-1.46,.91-2.12l-1.12-1.82,2.53-2.47,1.79,1.16c.66-.37,1.38-.66,2.14-.86l.5-2.08,3.53,.04,.45,2.09h0Zm-1.39,4.68c-2.66-.54-4.99,1.73-4.51,4.4,.26,1.49,1.45,2.71,2.94,3.01,2.66,.54,4.99-1.73,4.52-4.4-.26-1.49-1.45-2.71-2.94-3.01Z"/><path class="cls-14" d="M230.92,197.56s.2-.28,.71-.62c.5-.33,1.37-.7,2.47-.58,.54,.06,1.14,.24,1.68,.6,.54,.36,1.04,.87,1.36,1.53,.17,.33,.28,.69,.34,1.06,.07,.38,.08,.77,.02,1.17-.1,.79-.47,1.57-1.05,2.18-.59,.6-1.36,1-2.15,1.13-.39,.07-.79,.07-1.17,.02-.38-.05-.74-.15-1.08-.31-.67-.29-1.2-.78-1.58-1.3-.38-.53-.58-1.12-.66-1.66-.16-1.1,.18-1.98,.5-2.49,.32-.52,.59-.73,.59-.73,.02,.02-.23,.25-.52,.77-.29,.51-.59,1.37-.42,2.43,.09,.52,.28,1.08,.65,1.58,.37,.49,.87,.95,1.51,1.23,.31,.14,.66,.24,1.02,.28,.36,.05,.73,.04,1.1-.02,.74-.12,1.47-.5,2.03-1.07,.55-.58,.9-1.31,1-2.06,.06-.37,.05-.75-.02-1.1-.06-.36-.16-.7-.32-1.01-.29-.63-.77-1.12-1.28-1.47-.51-.35-1.08-.53-1.6-.59-1.06-.13-1.91,.2-2.41,.5-.51,.31-.73,.57-.75,.55Z"/><path class="cls-14" d="M229.03,192.86s-.04-.02-.12-.06l-.35-.2c-.32-.19-.78-.46-1.38-.81h.04c-.62,.65-1.45,1.51-2.44,2.55v-.07c.36,.54,.76,1.14,1.18,1.78l.02,.03-.02,.03c-.35,.63-.64,1.34-.83,2.13v.04h-.05c-.65,.17-1.34,.34-2.07,.52l.06-.08c.02,1.11,.05,2.29,.07,3.53l-.07-.08c.65,.13,1.36,.28,2.09,.43h.05v.06c.21,.68,.51,1.41,.93,2.09l.03,.05-.03,.05c-.34,.57-.72,1.19-1.1,1.83l-.02-.12c.8,.77,1.66,1.6,2.54,2.45h-.13c.56-.38,1.17-.78,1.78-1.18l.05-.03,.05,.03c.62,.35,1.35,.64,2.12,.83l.06,.02,.02,.06c.16,.65,.33,1.36,.51,2.07l-.11-.08c1.12-.02,2.32-.04,3.53-.06l-.1,.09c.14-.66,.29-1.37,.43-2.09v-.06l.08-.02c.7-.2,1.42-.5,2.08-.91h0l.06-.03,.06,.03c.61,.37,1.22,.74,1.82,1.11l-.13,.02c.83-.86,1.65-1.71,2.45-2.54v.13c-.41-.6-.8-1.2-1.18-1.79l-.04-.05,.03-.06c.38-.67,.65-1.39,.83-2.12l.02-.06h.06c.7-.19,1.39-.36,2.07-.52l-.08,.1c-.02-1.21-.04-2.38-.06-3.53l.08,.1c-.71-.15-1.41-.29-2.09-.44h-.06l-.02-.07c-.21-.75-.52-1.45-.9-2.09l-.03-.05,.03-.05c.38-.62,.75-1.23,1.11-1.82v.11c-.88-.86-1.72-1.68-2.52-2.46h.1c-.63,.42-1.22,.8-1.79,1.18l-.04,.03-.04-.02c-.71-.4-1.42-.67-2.12-.84h-.04v-.05c-.19-.75-.36-1.43-.51-2.08l.06,.05c-1.37,.02-2.53,.03-3.53,.05l.05-.04c-.18,.83-.33,1.52-.45,2.09v.02h-.02c-.75,.21-1.27,.46-1.61,.63l-.38,.2c-.09,.05-.13,.07-.13,.06,0,0,.04-.03,.12-.08,.08-.05,.2-.12,.37-.21,.34-.18,.86-.44,1.61-.66l-.02,.03c.12-.57,.25-1.26,.42-2.09v-.04h.05c1-.02,2.16-.05,3.53-.08h.05v.05c.17,.64,.34,1.32,.53,2.07l-.05-.05c.71,.17,1.44,.44,2.16,.84h-.08c.57-.37,1.16-.76,1.78-1.17l.06-.04,.05,.05c.8,.77,1.65,1.59,2.55,2.45l.05,.05-.04,.06c-.36,.59-.72,1.2-1.1,1.83v-.1c.39,.65,.71,1.37,.93,2.13l-.07-.07c.68,.14,1.38,.29,2.09,.43l.08,.02v.08c.02,1.15,.04,2.33,.07,3.53v.08l-.08,.02c-.68,.17-1.37,.34-2.07,.51l.08-.08c-.18,.75-.47,1.48-.85,2.17v-.11c.38,.59,.77,1.18,1.17,1.78l.05,.07-.06,.06c-.81,.84-1.62,1.68-2.45,2.54l-.06,.06-.07-.05c-.6-.37-1.21-.73-1.82-1.11h.11c-.68,.42-1.42,.73-2.14,.93l.08-.08c-.15,.72-.3,1.43-.44,2.09l-.02,.08h-.09c-1.21,.02-2.41,.04-3.53,.06h-.09l-.02-.08c-.18-.72-.35-1.42-.51-2.07l.08,.08c-.79-.19-1.53-.5-2.17-.85h.11c-.62,.4-1.23,.8-1.79,1.16l-.07,.04-.06-.06c-.88-.85-1.74-1.68-2.54-2.46l-.06-.05,.04-.07c.39-.63,.77-1.26,1.11-1.82v.1c-.42-.7-.73-1.44-.92-2.14l.07,.06c-.73-.15-1.44-.3-2.09-.44h-.07v-.08c-.02-1.24-.04-2.42-.06-3.53v-.06h.06c.73-.19,1.43-.36,2.07-.52l-.05,.05c.2-.8,.5-1.52,.86-2.16v.07c-.42-.64-.81-1.25-1.16-1.79l-.02-.04,.03-.03c1.01-1.03,1.84-1.88,2.47-2.53l.02-.02h.02c.58,.38,1.03,.66,1.34,.85l.35,.22c.08,.05,.12,.08,.12,.08Z"/></g><path class="cls-2" d="M229.34,51.77c.54-.33,1.13-.58,1.72-.75l.35-1.71,2.88-.05,.41,1.69c.6,.15,1.19,.38,1.75,.69l1.46-.95,2.07,2-.9,1.49c.33,.55,.58,1.13,.75,1.72l1.71,.35,.05,2.88-1.69,.41c-.15,.6-.38,1.19-.69,1.75l.95,1.46-2,2.07-1.49-.9c-.55,.33-1.13,.58-1.72,.75l-.36,1.71-2.88,.05-.41-1.69c-.6-.15-1.19-.38-1.75-.69l-1.46,.95-2.07-2,.9-1.49c-.33-.55-.58-1.13-.75-1.72l-1.71-.36-.05-2.88,1.69-.42c.15-.6,.38-1.19,.69-1.75l-.95-1.46,2-2.07,1.49,.9h0Zm1.54,3.84c-1.19,1.23-1.15,3.19,.08,4.37,1.23,1.19,3.19,1.15,4.37-.08,1.19-1.23,1.15-3.19-.08-4.37-1.23-1.19-3.19-1.15-4.37,.08Z"/><g><g><path class="cls-16" d="M38.49,121.67c-2.54-1.56-3.2-5.25-1.88-7.92,1.32-2.67,4.19-4.32,7.13-4.84,4.25-.75,8.82,.69,11.87,3.74,1.65,1.65,2.99,3.81,5.21,4.54,1.94,.64,4.08,0,6.11,.24,2.73,.31,5.09,2.21,6.52,4.56,1.43,2.34,2.05,5.09,2.41,7.81,.33,2.5,.57,5.24,2.33,7.04,1.72,1.76,4.4,2.09,6.52,3.33,4,2.33,5.37,8.21,2.81,12.06-.82,1.23-2,2.36-2.07,3.83-.07,1.34,.82,2.53,1.24,3.8,1.09,3.29-1.55,7.25-5.01,7.5-1.74,.13-3.63-.53-5.18,.28-1.54,.8-2.09,2.68-3.07,4.12-1.92,2.83-5.99,3.95-9.08,2.49-1.29-.61-2.52-1.63-3.95-1.52-1.42,.12-2.53,1.35-3.92,1.64-1.83,.38-3.59-.94-4.71-2.45-1.11-1.5-1.9-3.28-3.31-4.5-1.85-1.6-4.43-1.96-6.75-2.73-5.13-1.68-9.46-5.67-11.55-10.65-2.09-4.98-1.92-10.86,.47-15.71"/><path class="cls-6" d="M65.58,154.16c.51-.57,1.26-1.11,2.02-1.37h-.16c.14-.05,.29-.07,.44-.09,.56-.14,1.12-.12,1.6,.17h-.02c.88,.31,1.66,.94,2.09,1.77,.75,1.44,.51,3.3-.46,4.61-.84,1.14-2.31,1.9-3.69,1.58-1.27-.29-2.22-1.42-2.6-2.67-.41-1.36-.18-2.95,.77-4.01Z"/><g><path class="cls-8" d="M32.86,182.2l-3.39-49.02c-.14-2.16,1.4-4.06,3.54-4.38l21.84-6.53c7.04-1.05,12.12,7.45,12.87,14.53,.84,7.86,1.55,17.5,.87,23.42-1.37,11.91-11.08,13.85-11.08,13.85,0-.04,.11,12.11,.24,16.41l2.9,13.3-27.78-21.58Z"/><path class="cls-16" d="M63.43,146.98c.06,.8-.56,1.51-1.4,1.59-.83,.08-1.56-.5-1.62-1.3-.06-.8,.56-1.51,1.4-1.59,.83-.08,1.56,.5,1.62,1.3Z"/><path class="cls-16" d="M65.78,141.1c-.18,.21-1.37-.6-3-.52-1.63,.05-2.79,.94-2.98,.75-.09-.08,.09-.45,.59-.85,.5-.4,1.36-.81,2.37-.85,1.02-.04,1.89,.3,2.4,.66,.52,.36,.7,.71,.62,.81Z"/><path class="cls-16" d="M48.73,147.48c.06,.8-.56,1.51-1.4,1.59-.83,.08-1.56-.5-1.62-1.3-.06-.8,.56-1.51,1.4-1.59,.83-.08,1.56,.5,1.62,1.3Z"/><path class="cls-16" d="M49.74,142.1c-.18,.21-1.37-.59-3-.52-1.63,.05-2.79,.94-2.98,.75-.09-.08,.08-.45,.59-.85,.5-.4,1.36-.81,2.37-.85,1.02-.04,1.89,.3,2.4,.66,.52,.36,.7,.71,.62,.81Z"/><path class="cls-16" d="M56.19,153.95c-.01-.09,1-.31,2.63-.59,.42-.06,.81-.16,.86-.45,.09-.31-.11-.75-.33-1.22-.44-.99-.89-2.03-1.37-3.12-1.91-4.45-3.31-8.11-3.13-8.18,.18-.08,1.87,3.47,3.78,7.91,.46,1.1,.9,2.14,1.32,3.14,.18,.47,.47,.99,.29,1.63-.1,.32-.4,.56-.66,.64-.26,.09-.5,.11-.7,.13-1.65,.16-2.68,.21-2.69,.12Z"/><path class="cls-10" d="M57.44,173.27s-7.23,.81-15.31-3.59c0,0,3.55,8.75,15.35,7.14l-.03-3.55Z"/><path class="cls-10" d="M56.11,157.84c-.84-1.08-2.16-1.71-3.38-1.61-.85,.07-1.67,.5-2.1,1.26-.43,.76-.41,1.87,.15,2.64,.63,.86,1.78,1.1,2.69,.84,.91-.26,1.65-.93,2.34-1.59,.19-.18,.39-.38,.49-.63,.1-.26,.09-.6-.1-.83"/><path class="cls-16" d="M51.43,155.29c.26-.03,.34,1.75,1.92,2.94,1.57,1.2,3.45,.92,3.47,1.16,.03,.11-.41,.36-1.2,.42-.78,.06-1.93-.14-2.9-.87-.96-.73-1.4-1.74-1.49-2.47-.1-.74,.08-1.19,.2-1.18Z"/><path class="cls-16" d="M50.17,135.35c-.14,.45-1.78,.31-3.69,.62-1.91,.27-3.43,.9-3.7,.51-.12-.19,.13-.61,.74-1.07,.6-.46,1.57-.91,2.72-1.08,1.14-.18,2.21-.04,2.92,.22,.72,.25,1.08,.59,1.02,.8Z"/><path class="cls-16" d="M64.96,135.51c-.27,.38-1.41,.05-2.77,.09-1.35,0-2.49,.36-2.77-.02-.12-.18,.04-.56,.53-.94,.48-.37,1.29-.69,2.22-.7,.93-.01,1.75,.29,2.24,.65,.49,.36,.67,.74,.55,.92Z"/></g><path class="cls-16" d="M75.6,133.39c-.58-1.77-1.62-3.44-3.19-4.43-.86-.54-1.86-.87-2.66-1.49-1.73-1.36-2.16-3.75-3.25-5.67-1.4-2.46-4.05-4.17-6.88-4.42-2.35-.21-4.76,.53-7.05,0-1.7-.4-3.19-1.48-4.91-1.78-3.34-.58-6.41,1.85-8.79,4.27,.03,2.39,1.95,3.95,3.8,5.46,1.85,1.5,4.39,2.13,6.73,1.67,1.82-.36,3.8-1.31,5.39-.36,1.67,1,1.78,3.49,3.27,4.75,2.13,1.79,5.45,.03,8.12,.79,2.07,.58,3.39,2.53,4.78,4.17,1.39,1.64,3.47,3.18,5.52,2.54-.16-1.85-.32-3.72-.9-5.49Z"/><path class="cls-16" d="M50.41,123.67c-1.5-.41-4.57-1.33-5.39-2.61-1.78-2.79-4.88-4.67-8.01-4.45-3.13,.22-6.11,2.74-6.7,6.06-3.79,.08-7.46,2.52-9.23,6.14-.22,.45-.41,.92-.57,1.4-1.15,2.1-1.34,4.71-.45,6.93,.54,1.34,1.44,2.83,.76,4.11-.69,1.3-2.47,1.37-3.86,1.87-2.41,.87-3.94,3.67-3.36,6.17,.21,.9,.65,1.79,.47,2.69-.18,.94-.97,1.61-1.58,2.35-1.5,1.84-1.94,4.49-1.1,6.72,.84,2.22,2.92,3.93,5.26,4.32,1.07,.18,2.22,.12,3.15,.67,1.06,.63,1.55,1.9,2.3,2.88,1.46,1.88,4.16,2.68,6.4,1.9,.46-.16,.88-.39,1.27-.66,.73,.98,1.85,1.63,3.77,1.6l-.8-24.95c.25,.52,.71,.99,1.53,1.16,4.02,.85,4.48-7.41,3.56-9.64,1.43-1.31,2.88-2.63,3.96-4.28,1.08-1.65,1.99-6.12,1.72-8.12,1.44,.06,7.57-2.06,6.91-2.24Z"/><path class="cls-8" d="M33.87,148.81c-.16-2.53-3.28-3.03-5.46-1.73-1.2,.72-2.1,2.13-1.95,4.82,.4,7.18,7.52,5.29,7.52,5.09,0-.13,.07-5.21-.12-8.18Z"/><path class="cls-10" d="M31.65,154.39s-.12,.09-.33,.2c-.2,.11-.55,.19-.93,.07-.77-.24-1.48-1.4-1.59-2.7-.05-.65,.05-1.28,.25-1.81,.19-.54,.51-.92,.89-1.01,.37-.11,.66,.1,.76,.3,.11,.2,.07,.34,.11,.35,.02,.02,.15-.13,.07-.42-.04-.14-.13-.31-.31-.43-.18-.13-.44-.19-.7-.14-.55,.07-1.02,.61-1.24,1.19-.25,.58-.38,1.29-.32,2.02,.13,1.44,.94,2.76,2,3,.51,.1,.92-.07,1.13-.25,.21-.19,.24-.35,.22-.36Z"/><path class="cls-6" d="M40.5,121.88c.05,.08-.72,.22-1.41,1.22-.7,.99-.94,2.87-.46,4.97l.04,.18-.18,.05c-1.77,.47-3.71,1.91-4.57,4.14-.2,.55-.34,1.16-.35,1.76,0,.61,.12,1.24,.25,1.89,.13,.65,.27,1.32,.3,2.04,.06,.7-.12,1.52-.54,2.13-.87,1.37-2.3,2.06-3.52,2.73-1.26,.65-2.42,1.31-3.3,2.23-1.79,1.82-2.57,4.14-2.59,6.06-.04,1.94,.53,3.46,1.01,4.42,.49,.97,.9,1.44,.86,1.47-.01,.01-.12-.1-.31-.32-.18-.23-.45-.57-.72-1.05-.55-.95-1.19-2.5-1.2-4.52-.02-1.99,.75-4.45,2.62-6.38,.91-.98,2.16-1.7,3.4-2.35,1.22-.67,2.57-1.35,3.33-2.56,.78-1.1,.4-2.52,.17-3.8-.12-.65-.25-1.31-.25-1.99,.02-.69,.17-1.32,.39-1.92,.95-2.4,3.03-3.88,4.91-4.34l-.13,.23c-.46-2.21-.15-4.15,.65-5.18,.39-.51,.81-.79,1.11-.93,.31-.13,.47-.19,.48-.17Z"/><path class="cls-6" d="M29,157.12c.51-.57,1.26-1.11,2.02-1.37h-.16c.14-.05,.29-.07,.44-.09,.56-.14,1.12-.12,1.6,.17h-.02c.88,.31,1.66,.94,2.09,1.77,.75,1.44,.51,3.3-.46,4.61-.84,1.14-2.31,1.9-3.69,1.58-1.27-.29-2.22-1.42-2.6-2.66-.41-1.36-.18-2.95,.77-4.01Z"/></g><g><g><path class="cls-8" d="M133.08,211.26l4.89-1.88s1.33-4.27,2.22-5.52c.89-1.25,5.61-5.09,5.89-5.19,.28-.1,3.38-7.06,4.79-6.84s2.39,1.22,1.99,3.11c-.4,1.89-3.53,5.66-2.66,6.28,.87,.63,2.28,.85,2.28,.85,0,0,.38-2.17,1.58-2.87,1.19-.7,2.55,.46,2.55,.46l.04,.94,1.18-1.08s1.24-4.36,3.11-4.34c0,0,.73-1.62,1.85-2.49,.85-.66,2.11-.28,2.49,.73h0l-3.37,9.87-9.26,10.2s-4.34,1.67-5.44,2.18c-1.1,.51-6.12,3.98-8.34,4.73-2.22,.74-4.8,1.87-4.8,1.87l-.99-11.02Z"/><path class="cls-10" d="M146.06,208.22c0-.06-.66-.15-1.76-.18-1.07,0-2.67,.05-4.19,.92-.75,.43-1.34,1.05-1.74,1.67-.4,.62-.65,1.24-.83,1.76-.35,1.04-.46,1.7-.4,1.72,.07,.02,.3-.61,.72-1.6,.42-.96,1.1-2.35,2.49-3.14,1.38-.8,2.9-.92,3.96-1,1.07-.06,1.75-.09,1.75-.16Z"/><path class="cls-10" d="M150.34,201.48c.07-.1-.43-.56-1.22-.8-.79-.24-1.46-.13-1.46,0,0,.14,.61,.24,1.32,.46,.71,.21,1.28,.45,1.36,.34Z"/></g><path class="cls-10" d="M160.83,203.32c-.06-.01,.02-.81,.22-2.14,.19-1.33,.49-3.19,.86-5.33l.14,.28c-.33-.15-.72-.38-1.01-.48-.32-.1-.67-.04-.99,.13-.53,.27-.88,.83-1.14,1.38-.25,.57-.47,1.16-.61,1.71-.27,1.14-.45,2.2-.61,3.08-.32,1.77-.52,2.86-.6,2.85-.07,0,0-1.12,.22-2.91,.12-.9,.26-1.96,.5-3.14,.14-.61,.34-1.2,.61-1.82,.28-.6,.67-1.26,1.37-1.64,.41-.22,.93-.3,1.38-.16,.47,.16,.74,.36,1.1,.52l.18,.08-.04,.2c-.4,2.13-.77,3.98-1.05,5.3-.28,1.32-.48,2.09-.54,2.08Z"/><path class="cls-10" d="M148.67,211.75s0-.15,.04-.42c.06-.27,.18-.66,.4-1.13,.43-.95,1.22-2.21,2.43-3.54l-.05,.09c.64-1.9,.06-4.64,1.78-7.09,.43-.51,1.12-.83,1.78-.79,.66,.03,1.23,.26,1.73,.6l.12,.08-.02,.15c-.34,2.77-.66,5.17-.91,6.87-.06,.85-.39,1.54-.62,1.93-.24,.41-.41,.6-.44,.59-.03-.02,.09-.24,.28-.67,.18-.44,.44-1.03,.46-1.91,.16-1.71,.41-4.11,.72-6.87l.1,.24c-.4-.27-.93-.48-1.44-.49-.52-.02-1.01,.21-1.37,.62-.42,.45-.62,1.05-.8,1.66-.17,.61-.29,1.22-.39,1.81-.1,.6-.13,1.16-.2,1.76-.08,.58-.2,1.12-.36,1.64l-.02,.05-.04,.04c-1.2,1.26-2.04,2.46-2.52,3.34-.5,.88-.61,1.46-.67,1.44Z"/></g><g><path class="cls-1" d="M29.71,181c.3-.43,2.26-4.22,2.26-4.22l11.14,9.6s10.92,9.14,10.92,8.55l1.74-8.8,2.15-8,4.01,6.05s12.59,24.67,12.59,24.97,7.79,25.83,7.79,25.83l-1.68,10.35-.2,36.68-23.47-.99-4.63-7.39-7.99-47.03-14.62-45.61Z"/><polygon class="cls-16" points="58.98 274.76 83.98 274.76 87.94 291.56 49.49 291.56 58.98 274.76"/><path class="cls-11" d="M58.19,267.67c-.79-12.05-.46-34.77-5.07-46.63-4.61-11.86-23.12-40.99-23.12-40.99l-4.54,7.06-11.91,4.47,16.16,65.51s-6.22,14.66-9.19,23.22c-.89,2.56-2.08,6.9-3.39,11.24H58.03c.36-9.53,.54-18.2,.17-23.89Z"/><path class="cls-11" d="M136.51,207.66l-31.53,17.53-21.85-31.18c-.06-.08-.12-.16-.19-.25-2.49-3.29-4.93-6.91-8.95-7.82l-.61-.14,1.17,37.32s15.54,17.12,24.25,24.21c2.59,2.11,9.17,.79,12.3-.94,12.55-6.92,33.98-24.68,33.98-24.68l-8.57-14.05Z"/><path class="cls-11" d="M83.76,257.39s2.3-17.82,3.05-22.29c3.94-23.41-13.43-49.3-13.43-49.3l-7.94-1.31-6.85-5.66,3.03,8.45s9.95,27.83,11.93,36.73c1.98,8.89,2.96,36.23,3.27,35.57,.18-.39,1.38,16.5,2.88,31.99h16.85l-12.79-34.18Z"/><path class="cls-16" d="M82.29,237.55s-.01-.2,0-.58c.02-.41,.05-.96,.09-1.65,.02-.36,.05-.76,.07-1.19,0-.44,0-.91,0-1.42,0-1.02,.02-2.18-.08-3.46-.24-5.12-1.34-12.2-3.9-19.61-.96-2.79-2.01-5.44-3.16-7.78h0c-1.13-2.67-2.45-5.03-3.65-7.13-1.21-2.1-2.32-3.92-3.25-5.43-.92-1.48-1.67-2.67-2.2-3.52-.24-.39-.44-.7-.59-.94-.13-.22-.2-.33-.19-.34,0,0,.09,.1,.24,.3,.16,.23,.37,.53,.64,.91,.55,.8,1.33,1.97,2.29,3.47,.96,1.49,2.1,3.31,3.32,5.4,1.22,2.09,2.57,4.45,3.72,7.13h0c1.18,2.35,2.24,5.01,3.2,7.81,2.58,7.45,3.64,14.57,3.81,19.72,.08,1.29,.04,2.45,.02,3.48-.01,.51-.02,.99-.03,1.43l-.11,1.2c-.07,.69-.12,1.24-.16,1.65-.04,.38-.07,.57-.08,.57Z"/><path class="cls-16" d="M53.81,195.06s-.16-.05-.44-.19c-.33-.17-.73-.38-1.2-.63-1.09-.6-2.54-1.4-4.24-2.35l.25-.13c-.21,1.91-.56,4.13-.91,6.5-.14,.97-.27,1.91-.38,2.81l-.04,.35-.27-.23c-2.27-1.93-4.24-3.63-5.64-4.85-.65-.58-1.2-1.07-1.63-1.45-.38-.35-.57-.54-.56-.56,.01-.02,.24,.15,.64,.46,.45,.36,1.02,.82,1.7,1.37,1.44,1.17,3.44,2.84,5.72,4.75l-.31,.12c.1-.91,.23-1.85,.38-2.82,.35-2.38,.72-4.6,.96-6.49l.03-.25,.22,.13c1.68,.99,3.1,1.83,4.17,2.47,.46,.28,.84,.52,1.16,.71,.26,.17,.4,.27,.39,.28Z"/><path class="cls-16" d="M60.29,184.19s.04,.36,.03,1c-.01,.72-.03,1.64-.05,2.73-.06,2.31-.17,5.49-.31,9.01v.26l-.04,.61-.33-.52c-1.6-2.52-3.06-4.82-4.22-6.64l.26-.03c-.47,1.28-.85,2.35-1.15,3.17-.28,.75-.45,1.16-.48,1.15-.03,0,.09-.44,.33-1.21,.27-.84,.62-1.92,1.03-3.22l.09-.29,.17,.26c1.18,1.81,2.66,4.1,4.29,6.6l-.35,.1v-.26c.15-3.52,.3-6.7,.43-9,.07-1.09,.13-2.01,.17-2.73,.05-.64,.09-1,.12-1Z"/><path class="cls-11" d="M13.54,191.59c-.97,.61-1.9,1.31-2.77,2.13-2.22,2.07-3.81,4.72-4.82,7.59-1.12,3.21-2.24,7.17-2.89,9.65L.06,256.69c-.27,4.06,.39,8.13,1.92,11.9l9.34,22.97H31.45l-10.87-30.73,3.72-33.91-10.76-35.33Z"/><g><polyline class="cls-11" points="25.95 186.36 30.37 199.64 35.09 199.64 32.03 201.59 56.24 247.86"/><path class="cls-16" d="M56.24,247.86s-.04-.05-.11-.16l-.28-.49c-.25-.46-.6-1.1-1.04-1.91-.9-1.69-2.18-4.1-3.76-7.05-3.15-6-7.49-14.23-12.27-23.33-2.46-4.72-4.81-9.21-6.91-13.25l-.08-.14,.14-.09c1.06-.67,2.08-1.32,3.07-1.94l.09,.31c-1.67,0-3.24-.01-4.72-.02h-.11l-.03-.1c-1.32-4.06-2.41-7.38-3.17-9.72-.36-1.13-.64-2.03-.85-2.67-.09-.29-.16-.52-.21-.7-.05-.16-.06-.24-.06-.24,0,0,.04,.08,.1,.23,.07,.18,.15,.4,.25,.69,.22,.64,.53,1.52,.92,2.64,.79,2.33,1.92,5.63,3.29,9.67l-.14-.1c1.47,0,3.05-.01,4.72-.02h.58l-.49,.31c-.98,.63-2,1.28-3.06,1.96l.06-.23c2.11,4.03,4.47,8.51,6.94,13.23,4.75,9.12,9.04,17.38,12.17,23.39,1.53,2.98,2.77,5.4,3.65,7.11,.41,.82,.74,1.47,.98,1.94l.24,.51c.05,.12,.08,.18,.07,.18Z"/></g><g><path class="cls-11" d="M17.01,198.06c5.9,6.76,8.39,16.35,6.53,25.13"/><path class="cls-11" d="M23.55,223.19c-.08-.01,.25-1.49,.39-3.91,.08-1.21,.06-2.65-.06-4.25-.15-1.59-.42-3.33-.87-5.12-.47-1.78-1.09-3.44-1.73-4.9-.67-1.45-1.36-2.72-2.01-3.74-1.3-2.04-2.31-3.17-2.25-3.22,.02-.02,.28,.26,.73,.77,.23,.25,.5,.57,.79,.96,.29,.39,.64,.82,.96,1.34,.69,1.01,1.41,2.28,2.11,3.74,.67,1.47,1.3,3.14,1.78,4.95,.46,1.81,.72,3.58,.86,5.19,.1,1.61,.09,3.07-.02,4.29-.03,.61-.13,1.16-.19,1.64-.06,.48-.14,.89-.22,1.22-.14,.67-.24,1.03-.26,1.03Z"/></g></g><path class="cls-16" d="M31.45,291.56s-.03-.05-.07-.15l-.18-.46c-.16-.42-.38-1.02-.66-1.77-.56-1.57-1.37-3.8-2.37-6.55-1.98-5.57-4.71-13.24-7.73-21.74v-.06l.07-.75c1.02-9.15,1.94-17.43,2.62-23.44,.35-2.98,.63-5.4,.83-7.1,.1-.82,.18-1.47,.24-1.93l.07-.5c.02-.11,.03-.17,.03-.17s0,.06,0,.17l-.04,.5-.19,1.93c-.18,1.7-.43,4.12-.73,7.11-.65,6.02-1.54,14.3-2.53,23.45l-.08,.75v-.06c2.99,8.52,5.69,16.2,7.65,21.77,.96,2.77,1.74,5.01,2.28,6.58,.26,.76,.46,1.36,.61,1.79l.15,.47c.03,.11,.05,.16,.04,.16Z"/><path class="cls-16" d="M78.67,197.67s1.5,2.24,3.27,6.22c.47,.98,.86,2.11,1.33,3.29,.4,1.21,.88,2.49,1.24,3.89,.42,1.38,.74,2.85,1.08,4.38,.14,.77,.28,1.55,.43,2.35,.15,.79,.23,1.61,.35,2.43,.84,6.59,.62,12.63,.22,16.94-.12,1.08-.23,2.05-.33,2.91-.09,.86-.23,1.59-.31,2.19-.09,.58-.17,1.04-.22,1.38-.05,.31-.09,.48-.1,.48,0,0,0-.17,.04-.49,.04-.34,.1-.8,.17-1.39,.07-.6,.19-1.33,.26-2.19,.08-.86,.18-1.84,.28-2.91,.34-4.31,.53-10.33-.31-16.89-.12-.82-.2-1.63-.35-2.42-.14-.79-.28-1.57-.42-2.34-.34-1.52-.65-2.99-1.06-4.36-.35-1.39-.82-2.67-1.21-3.88-.46-1.18-.84-2.31-1.3-3.29-.21-.5-.42-.97-.61-1.42-.2-.45-.41-.85-.6-1.24-.38-.77-.7-1.44-1-1.97l-.66-1.23c-.15-.28-.22-.43-.21-.44Z"/><path class="cls-16" d="M105.29,234.91s-.29-.49-.58-1.37c-.29-.87-.56-2.13-.63-3.53-.06-1.41,.1-2.68,.31-3.58,.21-.9,.43-1.42,.46-1.41,.04,.01-.1,.56-.26,1.45-.15,.89-.28,2.14-.22,3.52,.06,1.38,.3,2.61,.53,3.49,.23,.88,.43,1.41,.38,1.43Z"/></g></g><g><path class="cls-16" d="M10.71,17.24V.3h5.3c.97,0,1.78,.16,2.43,.48,.65,.32,1.14,.78,1.48,1.38s.51,1.33,.51,2.18c0,.69-.1,1.31-.31,1.85-.21,.54-.49,1-.84,1.36-.35,.36-.76,.64-1.22,.84v.1c.49,.15,.94,.37,1.34,.68,.4,.3,.72,.72,.96,1.26,.24,.53,.36,1.22,.36,2.06,0,1.13-.23,2.05-.68,2.75-.45,.7-1.1,1.21-1.94,1.53s-1.85,.48-3.03,.48h-4.37Zm3.16-9.89h1.63c.41,0,.75-.09,1.01-.28,.26-.19,.46-.46,.58-.8s.18-.76,.18-1.23c0-.61-.15-1.09-.44-1.45s-.73-.54-1.31-.54h-1.65V7.35Zm0,7.1h1.73c.69,0,1.18-.19,1.47-.57,.29-.38,.43-.96,.43-1.75,0-.44-.06-.83-.18-1.15-.12-.32-.32-.57-.59-.75-.27-.18-.63-.27-1.07-.27h-1.78v4.49Z"/><path class="cls-16" d="M22.43,17.24V.3h3.23V17.24h-3.23Z"/><path class="cls-16" d="M28.1,17.24V.3h4.91c1.33,0,2.39,.29,3.18,.88,.79,.58,1.36,1.5,1.71,2.74,.35,1.24,.53,2.85,.53,4.82s-.18,3.54-.54,4.8-.95,2.19-1.75,2.8c-.81,.61-1.88,.91-3.23,.91h-4.81Zm3.23-2.79h1.31c.43,0,.8-.07,1.11-.21,.31-.14,.57-.38,.78-.72,.21-.34,.36-.8,.47-1.38,.11-.58,.16-1.33,.16-2.23v-2.02c0-.89-.05-1.64-.16-2.26-.11-.62-.26-1.11-.46-1.49-.2-.38-.46-.65-.78-.81-.32-.16-.69-.25-1.12-.25h-1.31V14.45Z"/><path class="cls-16" d="M43.54,17.24V.3h4.59l1.73,8.76c.03,.21,.08,.5,.15,.86,.07,.36,.13,.73,.2,1.11,.07,.38,.12,.72,.17,1.04h.17c.03-.21,.08-.49,.15-.83,.07-.34,.13-.69,.2-1.07,.07-.38,.12-.74,.17-1.09L52.79,.3h4.51V17.24h-3.11V8.02c0-.36,0-.73,.02-1.11,.02-.38,.03-.72,.05-1.04,.02-.31,.02-.57,.02-.76h-.15c-.03,.16-.07,.37-.12,.63-.05,.26-.1,.51-.15,.78-.05,.26-.1,.51-.15,.74l-2.05,9.99h-2.56l-2.05-9.99c-.03-.15-.07-.35-.12-.6-.05-.25-.1-.52-.15-.8-.05-.28-.1-.53-.15-.74h-.15c.03,.25,.05,.54,.05,.89s0,.69,.01,1.05c0,.35,.01,.68,.01,.97v9.22h-3.03Z"/><path class="cls-16" d="M58.56,17.24L62.33,.3h4.29l3.82,16.94h-3.38l-.76-3.6h-3.75l-.72,3.6h-3.28Zm4.44-6.31h2.89l-.96-5.06c-.02-.1-.04-.25-.07-.44-.03-.2-.07-.41-.11-.65-.04-.24-.08-.48-.11-.73-.03-.25-.07-.47-.1-.67h-.17c-.03,.25-.07,.53-.12,.84-.05,.31-.1,.62-.15,.92-.05,.3-.09,.55-.12,.73l-.96,5.06Z"/><path class="cls-16" d="M71.68,17.24V.3h3.06l3.23,8.09c.05,.13,.1,.29,.16,.48,.06,.19,.12,.39,.18,.59,.07,.21,.12,.42,.17,.63h.12V.3h3.06V17.24h-3.06l-3.23-8.19c-.07-.2-.15-.46-.26-.8-.11-.34-.2-.69-.28-1.05h-.12c.02,.26,.02,.57,.02,.91v9.13h-3.06Z"/><path class="cls-16" d="M82.9,17.24L86.67,.3h4.29l3.82,16.94h-3.38l-.76-3.6h-3.75l-.72,3.6h-3.28Zm4.44-6.31h2.89l-.96-5.06c-.02-.1-.04-.25-.07-.44-.03-.2-.07-.41-.11-.65-.04-.24-.08-.48-.11-.73-.03-.25-.07-.47-.1-.67h-.17c-.03,.25-.07,.53-.12,.84-.05,.31-.1,.62-.15,.92-.05,.3-.09,.55-.12,.73l-.96,5.06Z"/><path class="cls-16" d="M101,17.54c-1.89,0-3.28-.72-4.18-2.15-.9-1.43-1.34-3.63-1.34-6.61,0-2.01,.22-3.65,.65-4.94,.44-1.29,1.1-2.25,1.99-2.89,.89-.63,2-.95,3.33-.95,.85,0,1.61,.13,2.27,.39,.66,.26,1.21,.65,1.66,1.17s.79,1.18,1.01,1.97c.22,.8,.33,1.71,.33,2.75h-3.11c0-.53-.04-1.01-.11-1.44-.07-.44-.2-.81-.37-1.12-.17-.31-.41-.55-.7-.72-.3-.16-.67-.25-1.13-.25s-.83,.09-1.16,.28c-.33,.19-.6,.49-.8,.89-.21,.4-.35,.91-.44,1.52-.09,.61-.14,1.33-.14,2.17v2.34c0,1.1,.09,2.01,.26,2.73,.17,.72,.45,1.24,.83,1.57,.38,.33,.86,.49,1.46,.49,.64,0,1.13-.15,1.47-.44,.34-.3,.58-.72,.72-1.28,.14-.56,.21-1.22,.21-2v-.35h-2.66v-2.52h5.67v9.08h-1.73l-.25-1.68c-.21,.39-.5,.74-.85,1.05-.35,.3-.77,.53-1.25,.69-.48,.16-1.02,.23-1.63,.23Z"/><path class="cls-16" d="M108.92,17.24V.3h9.15V3.08h-5.92V7.23h5.08v2.79h-5.08v4.44h6.02v2.79h-9.25Z"/><path class="cls-16" d="M120.02,17.24V.3h4.59l1.73,8.76c.03,.21,.08,.5,.15,.86,.07,.36,.13,.73,.2,1.11,.07,.38,.12,.72,.17,1.04h.17c.03-.21,.08-.49,.15-.83,.07-.34,.13-.69,.2-1.07,.07-.38,.12-.74,.17-1.09l1.73-8.78h4.51V17.24h-3.11V8.02c0-.36,0-.73,.02-1.11,.02-.38,.03-.72,.05-1.04,.02-.31,.02-.57,.02-.76h-.15c-.03,.16-.07,.37-.12,.63-.05,.26-.1,.51-.15,.78-.05,.26-.1,.51-.15,.74l-2.05,9.99h-2.56l-2.05-9.99c-.03-.15-.07-.35-.12-.6-.05-.25-.1-.52-.15-.8-.05-.28-.1-.53-.15-.74h-.15c.03,.25,.05,.54,.05,.89s0,.69,.01,1.05c0,.35,.01,.68,.01,.97v9.22h-3.03Z"/><path class="cls-16" d="M136.27,17.24V.3h9.15V3.08h-5.92V7.23h5.08v2.79h-5.08v4.44h6.02v2.79h-9.25Z"/><path class="cls-16" d="M147.34,17.24V.3h3.06l3.23,8.09c.05,.13,.1,.29,.16,.48,.06,.19,.12,.39,.18,.59,.07,.21,.12,.42,.17,.63h.12V.3h3.06V17.24h-3.06l-3.23-8.19c-.07-.2-.15-.46-.26-.8-.11-.34-.2-.69-.28-1.05h-.12c.02,.26,.02,.57,.02,.91v9.13h-3.06Z"/><path class="cls-16" d="M162.49,17.24V3.08h-3.58V.3h10.36V3.08h-3.55v14.16h-3.23Z"/><path class="cls-16" d="M178.22,17.54c-.71,0-1.36-.07-1.96-.22-.6-.15-1.12-.41-1.57-.79-.44-.38-.79-.9-1.04-1.58-.25-.67-.37-1.54-.37-2.59v-.47h3.11v.49c0,.61,.06,1.09,.18,1.43,.12,.35,.31,.59,.57,.74,.25,.15,.59,.22,1,.22,.23,0,.44-.02,.62-.07,.18-.05,.34-.14,.49-.26,.15-.12,.27-.27,.36-.43,.09-.16,.16-.37,.2-.6s.06-.51,.06-.8c0-.43-.09-.79-.27-1.09-.18-.3-.42-.55-.73-.76-.3-.21-.64-.41-1.01-.58-.37-.17-.76-.35-1.17-.54-.41-.19-.8-.41-1.17-.65-.37-.25-.71-.55-1.01-.91-.3-.36-.55-.79-.73-1.29-.18-.5-.27-1.11-.27-1.84,0-.89,.13-1.64,.38-2.27,.25-.62,.6-1.13,1.05-1.53,.44-.39,.95-.68,1.52-.86,.57-.18,1.16-.27,1.79-.27,.69,0,1.32,.08,1.87,.25,.56,.16,1.04,.43,1.46,.79,.41,.36,.73,.84,.95,1.43,.22,.59,.33,1.32,.33,2.2v.54h-3.06v-.37c0-.44-.05-.82-.14-1.12-.09-.3-.24-.54-.46-.7-.21-.16-.52-.25-.91-.25-.3,0-.56,.06-.79,.18-.23,.12-.41,.32-.53,.58s-.19,.61-.19,1.04,.09,.82,.26,1.12c.17,.3,.42,.56,.73,.76,.31,.21,.65,.4,1.02,.58s.76,.36,1.17,.54c.41,.18,.8,.39,1.17,.64,.37,.25,.71,.55,1.02,.9s.56,.79,.73,1.29c.17,.51,.26,1.13,.26,1.85,0,1.22-.2,2.22-.6,3-.4,.78-.97,1.36-1.71,1.73s-1.61,.55-2.61,.55Z"/><path class="cls-16" d="M187.27,17.24v-6.73L183.08,.3h3.35l2.42,6.68h.15l2.49-6.68h3.18l-4.17,10.21v6.73h-3.23Z"/><path class="cls-16" d="M199.48,17.54c-.71,0-1.36-.07-1.96-.22-.6-.15-1.12-.41-1.57-.79-.44-.38-.79-.9-1.04-1.58-.25-.67-.37-1.54-.37-2.59v-.47h3.11v.49c0,.61,.06,1.09,.18,1.43,.12,.35,.31,.59,.57,.74,.25,.15,.59,.22,1,.22,.23,0,.44-.02,.62-.07,.18-.05,.34-.14,.49-.26,.15-.12,.27-.27,.36-.43,.09-.16,.16-.37,.2-.6s.06-.51,.06-.8c0-.43-.09-.79-.27-1.09-.18-.3-.42-.55-.73-.76-.3-.21-.64-.41-1.01-.58-.37-.17-.76-.35-1.17-.54-.41-.19-.8-.41-1.17-.65-.37-.25-.71-.55-1.01-.91-.3-.36-.55-.79-.73-1.29-.18-.5-.27-1.11-.27-1.84,0-.89,.13-1.64,.38-2.27,.25-.62,.6-1.13,1.05-1.53,.44-.39,.95-.68,1.52-.86,.57-.18,1.16-.27,1.79-.27,.69,0,1.32,.08,1.87,.25,.56,.16,1.04,.43,1.46,.79,.41,.36,.73,.84,.95,1.43,.22,.59,.33,1.32,.33,2.2v.54h-3.06v-.37c0-.44-.05-.82-.14-1.12-.09-.3-.24-.54-.46-.7-.21-.16-.52-.25-.91-.25-.3,0-.56,.06-.79,.18-.23,.12-.41,.32-.53,.58s-.19,.61-.19,1.04,.09,.82,.26,1.12c.17,.3,.42,.56,.73,.76,.31,.21,.65,.4,1.02,.58s.76,.36,1.17,.54c.41,.18,.8,.39,1.17,.64,.37,.25,.71,.55,1.02,.9s.56,.79,.73,1.29c.17,.51,.26,1.13,.26,1.85,0,1.22-.2,2.22-.6,3-.4,.78-.97,1.36-1.71,1.73s-1.61,.55-2.61,.55Z"/><path class="cls-16" d="M208.83,17.24V3.08h-3.58V.3h10.36V3.08h-3.55v14.16h-3.23Z"/><path class="cls-16" d="M217.19,17.24V.3h9.15V3.08h-5.92V7.23h5.08v2.79h-5.08v4.44h6.02v2.79h-9.25Z"/><path class="cls-16" d="M228.28,17.24V.3h4.59l1.73,8.76c.03,.21,.08,.5,.15,.86,.07,.36,.13,.73,.2,1.11,.07,.38,.12,.72,.17,1.04h.17c.03-.21,.08-.49,.15-.83,.07-.34,.13-.69,.2-1.07,.07-.38,.12-.74,.17-1.09l1.73-8.78h4.51V17.24h-3.11V8.02c0-.36,0-.73,.02-1.11,.02-.38,.03-.72,.05-1.04,.02-.31,.02-.57,.02-.76h-.15c-.03,.16-.07,.37-.12,.63-.05,.26-.1,.51-.15,.78-.05,.26-.1,.51-.15,.74l-2.05,9.99h-2.57l-2.05-9.99c-.03-.15-.07-.35-.12-.6-.05-.25-.1-.52-.15-.8-.05-.28-.1-.53-.15-.74h-.15c.03,.25,.05,.54,.05,.89s0,.69,.01,1.05c0,.35,.01,.68,.01,.97v9.22h-3.03Z"/></g><path class="cls-14" d="M64.19,72.78s.2-.28,.71-.62c.5-.33,1.37-.7,2.47-.58,.54,.06,1.14,.24,1.68,.6,.54,.36,1.04,.87,1.36,1.53,.17,.33,.28,.69,.34,1.06,.07,.38,.08,.77,.02,1.17-.1,.79-.47,1.57-1.05,2.18-.59,.6-1.36,1-2.15,1.13-.39,.07-.79,.07-1.17,.02-.38-.05-.74-.15-1.08-.31-.67-.29-1.2-.78-1.58-1.3-.38-.53-.58-1.12-.66-1.66-.16-1.1,.18-1.98,.5-2.49,.32-.52,.59-.73,.59-.73,.02,.02-.23,.25-.52,.77-.29,.51-.59,1.37-.42,2.43,.09,.52,.28,1.08,.65,1.58,.37,.49,.87,.95,1.51,1.23,.31,.14,.66,.24,1.02,.28,.36,.05,.73,.04,1.1-.02,.74-.12,1.47-.5,2.03-1.07,.55-.58,.9-1.31,1-2.06,.06-.37,.05-.75-.02-1.1-.06-.36-.16-.7-.32-1.01-.29-.63-.77-1.12-1.28-1.47-.51-.35-1.08-.53-1.6-.59-1.06-.13-1.91,.2-2.41,.5-.51,.31-.73,.57-.75,.55Z"/><path class="cls-14" d="M62.3,68.07s-.04-.02-.12-.06l-.35-.2c-.32-.19-.78-.46-1.38-.81h.04c-.62,.65-1.45,1.51-2.44,2.55v-.07c.36,.54,.76,1.14,1.18,1.78l.02,.03-.02,.03c-.35,.63-.64,1.34-.83,2.13v.04h-.05c-.65,.17-1.34,.34-2.07,.52l.06-.08c.02,1.11,.05,2.29,.07,3.53l-.07-.08c.65,.13,1.36,.28,2.09,.43h.05v.06c.21,.68,.51,1.41,.93,2.09l.03,.05-.03,.05c-.34,.57-.72,1.19-1.1,1.83l-.02-.12c.8,.77,1.66,1.6,2.54,2.45h-.13c.56-.38,1.17-.78,1.78-1.18l.05-.03,.05,.03c.62,.35,1.35,.64,2.12,.83l.06,.02,.02,.06c.16,.65,.33,1.36,.51,2.07l-.11-.08c1.12-.02,2.32-.04,3.53-.06l-.1,.09c.14-.66,.29-1.37,.43-2.09v-.06l.08-.02c.7-.2,1.42-.5,2.08-.91h0l.06-.03,.06,.03c.61,.37,1.22,.74,1.82,1.11l-.13,.02c.83-.86,1.65-1.71,2.45-2.54v.13c-.41-.6-.8-1.2-1.18-1.79l-.04-.05,.03-.06c.38-.67,.65-1.39,.83-2.12l.02-.06h.06c.7-.19,1.39-.36,2.07-.52l-.08,.1c-.02-1.21-.04-2.38-.06-3.53l.08,.1c-.71-.15-1.41-.29-2.09-.44h-.06l-.02-.07c-.21-.75-.52-1.45-.9-2.09l-.03-.05,.03-.05c.38-.62,.75-1.23,1.11-1.82v.11c-.88-.86-1.72-1.68-2.52-2.46h.1c-.63,.42-1.22,.8-1.79,1.18l-.04,.03-.04-.02c-.71-.4-1.42-.67-2.12-.84h-.04v-.05c-.19-.75-.36-1.43-.51-2.08l.06,.05c-1.37,.02-2.53,.03-3.53,.05l.05-.04c-.18,.83-.33,1.52-.45,2.09v.02h-.02c-.75,.21-1.27,.46-1.61,.63l-.38,.2c-.09,.05-.13,.07-.13,.06,0,0,.04-.03,.12-.08,.08-.05,.2-.12,.37-.21,.34-.18,.86-.44,1.61-.66l-.02,.03c.12-.57,.25-1.26,.42-2.09v-.04h.05c1-.02,2.16-.05,3.53-.08h.05v.05c.17,.64,.34,1.32,.53,2.07l-.05-.05c.71,.17,1.44,.44,2.16,.84h-.08c.57-.37,1.16-.76,1.78-1.17l.06-.04,.05,.05c.8,.77,1.65,1.59,2.55,2.45l.05,.05-.04,.06c-.36,.59-.72,1.2-1.1,1.83v-.1c.39,.65,.71,1.37,.93,2.13l-.07-.07c.68,.14,1.38,.29,2.09,.43l.08,.02v.08c.02,1.15,.04,2.33,.07,3.53v.08l-.08,.02c-.68,.17-1.37,.34-2.07,.51l.08-.08c-.18,.75-.47,1.48-.85,2.17v-.11c.38,.59,.77,1.18,1.17,1.78l.05,.07-.06,.06c-.81,.84-1.62,1.68-2.45,2.54l-.06,.06-.07-.05c-.6-.37-1.21-.73-1.82-1.11h.11c-.68,.42-1.42,.73-2.14,.93l.08-.08c-.15,.72-.3,1.43-.44,2.09l-.02,.08h-.09c-1.21,.02-2.41,.04-3.53,.06h-.09l-.02-.08c-.18-.72-.35-1.42-.51-2.07l.08,.08c-.79-.19-1.53-.5-2.17-.85h.11c-.62,.4-1.23,.8-1.79,1.16l-.07,.04-.06-.06c-.88-.85-1.74-1.68-2.54-2.46l-.06-.05,.04-.07c.39-.63,.77-1.26,1.11-1.82v.1c-.42-.7-.73-1.44-.92-2.14l.07,.06c-.73-.15-1.44-.3-2.09-.44h-.07v-.08c-.02-1.24-.04-2.42-.06-3.53v-.06h.06c.73-.19,1.43-.36,2.07-.52l-.05,.05c.2-.8,.5-1.52,.86-2.16v.07c-.42-.64-.81-1.25-1.16-1.79l-.02-.04,.03-.03c1.01-1.03,1.84-1.88,2.47-2.53l.02-.02h.02c.58,.38,1.03,.66,1.34,.85l.35,.22c.08,.05,.12,.08,.12,.08Z"/></g></svg>