<?xml version="1.0" encoding="UTF-8"?>
<svg version="1.1" xmlns="http://www.w3.org/2000/svg" width="154" height="156">
<path d="M0 0 C-1.66402195 6.7321091 -1.66402195 6.7321091 -2.37817383 9.52368164 C-3.20077788 12.74150471 -3.98704851 15.93294735 -4.6171875 19.1953125 C-6.24933102 27.04301626 -10.17905052 30.73061257 -16 36 C-17.08528421 37.18791156 -18.14887093 38.39608774 -19.1875 39.625 C-22.60197899 43.60195697 -26.16662949 47.42595178 -29.75 51.25 C-34.96542927 56.81716272 -40.14533039 62.41297481 -45.29296875 68.04296875 C-49.67208212 72.83137494 -54.08033323 77.59297075 -58.48388672 82.35888672 C-60.99014104 85.07177585 -63.49502145 87.78593292 -66 90.5 C-69.01102872 93.76235685 -72.02235526 97.02443592 -75.03515625 100.28515625 C-81.70737964 107.50767717 -88.36108288 114.74685236 -95 122 C-97.52469299 120.7376535 -97.65658776 119.80129523 -98.75 117.25 C-101.6526455 111.21810842 -106.20459997 108.2386059 -112 105 C-110.66000502 101.993182 -109.20154709 100.00237391 -106.8125 97.75 C-104.36401744 95.37176079 -102.03928947 92.96200541 -99.8125 90.375 C-96.65917662 86.7185621 -93.40729197 83.16513874 -90.125 79.625 C-86.55567999 75.77399311 -83.00354031 71.911225 -79.5 68 C-76.03510167 64.13337433 -72.52695432 60.30986214 -69 56.5 C-64.71772721 51.87380193 -60.47792141 47.21321325 -56.26953125 42.51953125 C-52.35436688 38.17309232 -48.39154327 33.87041049 -44.43359375 29.56298828 C-42.96327347 27.95995857 -41.4967992 26.3534858 -40.03125 24.74609375 C-39.54446777 24.21290527 -39.05768555 23.6797168 -38.55615234 23.13037109 C-37.2060608 21.65130458 -35.8569066 20.17138261 -34.5078125 18.69140625 C-27.68427904 11.36833062 -21.50829314 7.63879629 -12.375 3.8125 C-11.51648438 3.44447266 -10.65796875 3.07644531 -9.7734375 2.69726562 C-8.5359375 2.17616211 -8.5359375 2.17616211 -7.2734375 1.64453125 C-6.15074463 1.17043823 -6.15074463 1.17043823 -5.00537109 0.68676758 C-3 0 -3 0 0 0 Z " fill="#343332" transform="translate(154,0)"/>
<path d="M0 0 C5.47074921 3.07022968 9.09563886 6.90538355 12 12.4375 C14.10146823 20.07920264 13.97931703 26.18352819 10.53125 33.3359375 C6.56177039 39.97378951 1.72282132 43.6707525 -5.796875 45.5625 C-13.36463292 46.69061298 -19.59144708 44.80235609 -26.0625 40.875 C-31.3021018 36.75904241 -33.86669327 31.19892817 -34.7578125 24.6796875 C-35.02881263 16.89295031 -34.08701712 11.0296745 -28.734375 5.2265625 C-20.47557246 -2.39980921 -10.38725744 -4.73996838 0 0 Z " fill="#FD9500" transform="translate(40.3125,110.0625)"/>
<path d="M0 0 C4.95116978 1.65038993 7.31013676 5.66943833 10 10 C11.54865654 13.79175309 12.50674318 17.6416685 13.4375 21.625 C13.71408447 22.72859863 13.99066895 23.83219727 14.27563477 24.96923828 C14.87415359 27.35833559 15.46426923 29.74955049 16.046875 32.14257812 C17.06363641 36.25754491 18.13356234 40.35581852 19.21875 44.453125 C19.77647228 46.56830989 20.33364652 48.68363841 20.89065552 50.79901123 C21.25367708 52.177152 21.61733945 53.55512414 21.98165894 54.93292236 C22.4914981 56.86802645 22.99394799 58.80507278 23.49609375 60.7421875 C23.78669678 61.8544873 24.0772998 62.96678711 24.37670898 64.11279297 C25 67 25 67 25 71 C23.0429132 71.67031719 21.08428887 72.33614683 19.125 73 C17.48917969 73.556875 17.48917969 73.556875 15.8203125 74.125 C13 75 13 75 11 75 C9.14173189 67.10526149 7.29488343 59.20798799 5.46427917 51.30679321 C4.67473202 47.90002489 3.88220741 44.49404702 3.07958984 41.09033203 C2.23016404 37.47921237 1.39477983 33.86510428 0.5625 30.25 C0.30388184 29.16420654 0.04526367 28.07841309 -0.22119141 26.9597168 C-2.38246517 17.45914841 -2.77693447 9.37215385 0 0 Z " fill="#343332" transform="translate(3,31)"/>
</svg>
